<svg width="556" height="615" viewBox="0 0 556 615" fill="none" xmlns="http://www.w3.org/2000/svg">
<path d="M277.84 614.349C431.259 614.349 555.63 489.979 555.63 336.56C555.63 183.14 431.259 58.7695 277.84 58.7695C124.421 58.7695 0.0498047 183.14 0.0498047 336.56C0.0498047 489.979 124.421 614.349 277.84 614.349Z" fill="black"/>
<path d="M291.02 512.46C288.45 512.37 286.52 512 282.96 512.26C278.89 512.56 275.99 513.43 275.15 513.65C266.56 515.94 256.61 508.5 245.54 507.37C229.74 505.75 214.11 517.31 214.93 522.01C215.65 526.11 229.13 526.44 229.09 529.52C229.06 532.16 219.17 532.51 218.61 536.14C218.28 538.33 221.33 541.04 234.37 547.77C240.02 550.69 245.62 553.69 251.26 556.64C269.71 566.29 273.76 569.22 273.7 572.82C273.65 575.82 270.77 578.8 270.13 579.43C266.85 582.67 262.87 582.86 262.85 584.44C262.85 585.02 263.38 585.74 266.49 587.11C271.2 589.19 275.5 590 280.39 590.59C287.52 591.45 288.55 590.97 289.07 590.66C291.97 588.99 292.65 585.37 293.47 581.06C294.35 576.41 295.49 570.36 293.55 563.57C293.06 561.85 292.38 560.14 293.21 558.51C294.22 556.52 296.74 556.03 299.71 555.31C305.29 553.95 310 552.36 311.23 551.87C318.07 549.18 324.48 538.59 322.28 527.81C321.38 523.41 320.83 522.13 320.09 521.71C317.77 520.38 314.41 522.7 313.68 521.67C312.96 520.66 316.26 518.49 315.91 516.03C315.48 512.97 309.62 510.71 304.68 510.39C299 510.03 298.48 512.73 291 512.46H291.02Z" fill="white"/>
<path d="M265.82 6.19979C286.99 11.2798 289.97 17.4498 306.41 18.5398C322.4 19.5998 332.98 14.6598 335.12 18.5398C337.7 23.2298 324.16 33.8998 325.72 35.6298C326.99 37.0298 335.72 29.6398 347 25.7698C359.02 21.6398 378.52 19.9398 386.6 27.0898C400.35 39.2498 373.13 69.9798 362.84 126.75C359.28 146.41 363.06 139.85 356.9 237.8C355 267.99 349.42 288.37 333 302.65C318.61 315.16 298.54 318.83 299.06 320.47C299.62 322.24 321.38 312.77 328.69 320.51C333.79 325.91 330.66 336.48 323.24 353.6C306.13 393.05 325.02 423.22 310.37 442.82C307.74 446.34 302.43 451.74 300.47 460.85C299.24 466.57 300.17 469.82 297.5 473.66C295.34 476.76 291.79 478.87 282.7 480.99C267.09 484.62 255.61 481.97 242.13 480.4C236.26 479.72 234.98 473.26 232.07 468.32C222.15 451.46 221.44 434.79 221.28 431.43C219.73 399.03 210.39 379.07 205.88 344.41C204.37 332.79 203.89 322.03 203.46 300.44C202.66 259.48 202.06 206.1 223.66 192.35C225.85 190.95 232.8 187.08 232.24 183.16C231.69 179.33 224.35 177.99 220.59 176.42C204.15 169.55 204.74 136.75 201.48 111.56C194.14 54.7998 167.69 41.1298 179.7 22.3398C191.08 4.53979 224.15 2.83979 231.94 2.44979C246.66 1.69979 259.63 4.71979 265.82 6.20979V6.19979Z" fill="white"/>
<path d="M270.19 4.31991C291.36 9.39991 294.34 15.5699 310.78 16.6599C326.77 17.7199 337.35 12.7799 339.49 16.6599C342.07 21.3499 328.53 32.0199 330.09 33.7499C331.36 35.1499 340.09 27.7599 351.37 23.8899C363.39 19.7599 382.89 18.0599 390.97 25.2099C404.72 37.3699 377.5 68.0999 367.21 124.87C363.65 144.53 367.43 137.97 361.27 235.92C359.37 266.11 353.79 286.49 337.37 300.77C322.98 313.28 302.91 316.95 303.43 318.59C303.99 320.36 325.75 310.89 333.06 318.63C338.16 324.03 335.03 334.6 327.61 351.72C310.5 391.17 329.39 421.34 314.74 440.94C312.11 444.46 306.8 449.86 304.84 458.97C303.61 464.69 304.54 467.94 301.87 471.78C299.71 474.88 296.16 476.99 287.07 479.11C271.46 482.74 259.98 480.09 246.5 478.52C240.63 477.84 239.35 471.38 236.44 466.44C226.52 449.58 225.81 432.91 225.65 429.55C224.1 397.15 214.76 377.19 210.25 342.53C208.74 330.91 208.26 320.15 207.83 298.56C207.03 257.6 206.43 204.22 228.03 190.47C230.22 189.07 237.17 185.2 236.61 181.28C236.06 177.45 228.72 176.11 224.96 174.54C208.52 167.67 209.11 134.87 205.85 109.68C198.51 52.9199 172.06 39.2499 184.07 20.4599C195.45 2.65991 228.52 0.959906 236.31 0.569906C251.03 -0.180094 264 2.83991 270.19 4.32991V4.31991Z" fill="#BE1622"/>
<path d="M294.91 510.35C292.34 510.26 290.41 509.89 286.85 510.15C282.78 510.45 279.88 511.32 279.04 511.54C270.45 513.83 260.5 506.39 249.43 505.26C233.63 503.64 218 515.2 218.82 519.9C219.54 524 233.02 524.33 232.98 527.41C232.95 530.05 223.06 530.4 222.5 534.03C222.17 536.22 225.22 538.93 238.26 545.66C243.91 548.58 249.51 551.58 255.15 554.53C273.6 564.18 277.65 567.11 277.59 570.71C277.54 573.71 274.66 576.69 274.02 577.32C270.74 580.56 266.76 580.75 266.74 582.33C266.74 582.91 267.27 583.63 270.38 585C275.09 587.08 279.39 587.89 284.28 588.48C291.41 589.34 292.44 588.86 292.96 588.55C295.86 586.88 296.54 583.26 297.36 578.95C298.24 574.3 299.38 568.25 297.44 561.46C296.95 559.74 296.27 558.03 297.1 556.4C298.11 554.41 300.63 553.92 303.6 553.2C309.18 551.84 313.89 550.25 315.12 549.76C321.96 547.07 328.37 536.48 326.17 525.7C325.27 521.3 324.72 520.02 323.98 519.6C321.66 518.27 318.3 520.59 317.57 519.56C316.85 518.55 320.15 516.38 319.8 513.92C319.37 510.86 313.51 508.6 308.57 508.28C302.89 507.92 302.37 510.62 294.89 510.35H294.91Z" fill="#BE1622"/>
<path d="M201.01 573.25C141.8 551.5 92.3502 509.53 60.5202 455.2C58.9002 452.44 54.3802 458.33 55.8702 460.87C87.8602 515.48 137.75 557.89 197.26 579.75C200.22 580.84 203.74 574.26 201.01 573.25Z" fill="#F6F6F6"/>
<path d="M52.2904 439.23L48.4104 432.04C47.5704 430.49 45.3804 432.1 44.7004 432.92C43.6504 434.2 42.9104 436.14 43.7504 437.7L47.6304 444.89C48.4704 446.44 50.6604 444.83 51.3404 444.01C52.3904 442.73 53.1304 440.79 52.2904 439.23Z" fill="#F6F6F6"/>
<path d="M283 304.37C280.18 324.39 279.55 342.63 278.29 379.11C277.37 405.86 277.56 417.87 285.77 423.93C292.39 428.82 301.06 427.51 306.25 426.64C367.64 416.24 408.65 409.3 416.66 379.54C420.93 363.67 414.87 344.81 404.29 332.21C395.09 321.26 383.82 316.63 378.06 314.74C382.85 312.45 394.3 306.17 401.72 292.79C404.33 288.08 410.98 276.08 407.51 264.2C403.28 249.72 385.12 239.17 362.92 239.85C362.92 239.85 338.22 236.95 299.41 248.02C298.47 248.29 295.89 249.16 293.86 251.71C292.16 253.85 291.73 256.06 291.6 257.06C287.38 276.01 284.72 292.18 283 304.37ZM278.66 307.8C269.3 307.73 256.6 307.79 241.57 308.36C206.04 309.72 195.37 312.48 192.74 307.44C189.81 301.82 200.25 292.98 230.4 256.51C230.4 256.51 236.63 248.97 248.9 233.63C284.7 188.87 302.6 166.48 297.12 155.72C293.54 148.69 283.92 150.19 232.44 150.57C177.09 150.99 155.34 146.91 139.39 163.31C137.23 165.53 129.55 173.43 131.79 178.78C134.78 185.95 153.94 184.71 213.62 183.48C234.32 183.05 239.61 182.99 241.73 186.65C246.85 195.54 226.54 214.5 190.06 254.78C132.03 318.87 129.77 328.14 132.42 333.51C135.64 340.04 145.96 340.85 210.69 339.48C236.19 338.94 258.36 338.31 276.21 337.73C276.32 330.58 276.77 322.98 277.69 315C277.97 312.55 278.29 310.14 278.64 307.79L278.66 307.8ZM387.97 372.6C382.93 387.27 365.95 391.63 354.31 394.5C344.92 396.81 331.71 400.07 324.08 393.01C319.51 388.79 319.24 381.62 318.89 367.45C318.75 361.93 318.75 351.89 322.38 322.71C322.67 320.41 323.44 314.27 324.82 304.37C326.96 289.01 328.93 276.43 330.33 267.75C350.04 263.24 365.5 265.95 368.44 273.24C371.29 280.32 361.84 290.51 359.45 293.09C348.4 305 333.77 307.13 328.44 307.64C327.76 312.38 327.1 317.15 326.44 321.94C325.89 325.97 325.35 329.98 324.82 333.98C331.86 333.23 342.11 332.83 354.19 334.88C367.51 337.14 376.09 338.56 382.36 346.05C387.99 352.77 391.15 363.4 387.99 372.59L387.97 372.6Z" fill="#F6F6F6"/>
</svg>
