<svg width="140" height="40" viewBox="0 0 140 40" fill="none" xmlns="http://www.w3.org/2000/svg">
<g clip-path="url(#clip0_96_520)">
<path d="M137.97 0L133.26 0.38L128.55 0L132.55 26.37H134.3L137.97 0Z" fill="#E30613"/>
<path d="M133.36 29.59L129.24 29.09L128.06 32.59L132.18 34.59V36.59L130.41 36.09V38.04L135.12 39.51V34.08L139.24 33.08L138.65 29.08L133.35 29.58L133.36 29.59Z" fill="#E30613"/>
<path d="M0 21.12L9.27 10.29H0V5.23999H16.57V10.26L6.97 21.32H17V26.37H0V21.12Z" fill="white"/>
<path d="M18.3896 5.25H24.7296V26.37H18.3896V5.25Z" fill="white"/>
<path d="M26.9404 5.25H35.1904C43.4404 5.25 44.1704 9.64 44.1704 12.68C44.1704 15.52 42.8204 18.06 39.6504 18.65L45.7604 26.37H37.8704L33.2804 18.55V26.37H26.9404V5.25ZM34.9604 14.99C37.2404 14.99 37.7704 14.1 37.7704 12.68C37.7704 11.13 37.2104 10.3 34.9604 10.3H33.2804V14.99H34.9604Z" fill="white"/>
<path d="M46.6504 5.25H52.9904V13.47L57.5404 5.25H65.7904L58.2304 15.35L66.1904 26.37H57.9704L52.9904 17.16V26.37H46.6504V5.25Z" fill="white"/>
<path d="M67.7002 5.25H74.0402V26.37H67.7002V5.25Z" fill="white"/>
<path d="M96.2203 5.25H88.9603L82.7203 16.93V5.25H76.3203V26.37H83.3803L89.8203 14.95V26.37H96.2203V5.25Z" fill="#E30613"/>
<path d="M98.5 5.25H104.84V26.37H98.5V5.25Z" fill="white"/>
<path d="M107.05 5.25H113.39V13.47L117.94 5.25H126.19L118.63 15.35L126.58 26.37H118.36L113.38 17.16V26.37H107.04V5.25H107.05Z" fill="white"/>
<path d="M105.88 29.09H109.11C111.47 29.09 112.28 29.96 112.28 31.33C112.28 31.83 111.97 32.69 111.11 32.81C111.97 32.93 112.5 33.85 112.5 34.56C112.5 35.97 111.84 37.05 109.08 37.05H105.87V29.09H105.88ZM109.06 32.17C109.79 32.17 109.92 31.87 109.92 31.5C109.92 31.13 109.81 30.84 109.09 30.84H108.27V32.17H109.07H109.06ZM109.13 35.34C109.91 35.34 110.08 34.99 110.08 34.57C110.08 34.15 109.92 33.85 109.17 33.85H108.26V35.34H109.13Z" fill="white"/>
<path d="M113.12 29.09H119.03V30.99H115.5V32.13H118.67V33.86H115.5V35.14H119.03V37.04H113.12V29.08V29.09Z" fill="white"/>
<path d="M119.39 35.07L122.88 30.99H119.39V29.09H125.63V30.98L122.01 35.15H125.79V37.05H119.39V35.07Z" fill="white"/>
</g>
<defs>
<clipPath id="clip0_96_520">
<rect width="139.25" height="39.52" fill="white"/>
</clipPath>
</defs>
</svg>
