<svg width="253" height="100" viewBox="0 0 253 100" fill="none" xmlns="http://www.w3.org/2000/svg">
<path d="M207.509 10.3172C207.156 10.1814 206.788 10.1023 206.408 10.0771C203.231 9.61142 200.047 9.20704 196.856 8.86648C196.577 8.88661 196.3 8.88129 196.02 8.84813L193.998 8.62981C193.959 8.62684 193.921 8.63146 193.885 8.64607C193.847 8.65828 193.812 8.68048 193.78 8.71012L181.469 20.3742C181.319 20.5168 181.245 20.4853 181.251 20.2844L181.266 19.7886C181.404 19.3217 181.489 18.7586 181.52 18.102C181.706 14.081 182.142 10.0771 182.826 6.113C182.825 6.10035 182.827 6.09009 182.824 6.08011C182.817 6.04496 182.789 6.02105 182.755 6.01527C181.421 5.81312 180.121 5.70053 178.859 5.67216C178.846 5.67286 178.831 5.6737 178.815 5.66948C178.828 5.66878 178.839 5.67075 178.851 5.67005C178.527 5.61903 178.2 5.60877 177.869 5.63421C176.518 5.74273 175.169 5.90185 173.828 6.10877L171.875 6.27509C171.852 6.27634 171.829 6.28772 171.812 6.30388C171.795 6.32257 171.786 6.3459 171.782 6.36895C171.774 6.4405 173.39 28.2305 173.407 28.2524C173.42 28.2644 173.427 28.2818 173.43 28.2994C173.43 28.2994 174.252 41.227 174.213 41.5819C174.228 44.4852 174.501 47.3796 175.029 50.2375C175.177 51.0215 175.331 51.6961 175.497 52.2558C175.714 52.9929 176.01 54.1269 176.104 54.396L177.857 57.8528C177.938 57.9855 178.039 58.1171 178.168 58.2498C178.265 58.3537 178.378 58.4568 178.503 58.5592C179.707 59.54 181.055 60.1451 182.546 60.3743C182.7 60.4676 182.906 60.4513 183.166 60.3307C183.229 60.3019 183.264 60.2366 183.252 60.1687C183.069 59.0996 182.907 58.027 182.765 56.9532C182.455 54.6193 182.248 52.2721 182.139 49.9197C182.133 49.8185 181.979 43.0996 181.979 43.0996L181.859 36.9019C181.826 35.6014 181.729 32.7559 181.729 32.7559C181.889 32.534 182.126 32.803 182.175 32.8942C182.175 32.8942 185.495 41.2801 186.962 44.5924C187.897 46.885 188.764 49.2042 189.556 51.5451C189.576 51.6075 189.688 52.0914 189.829 52.5001C189.925 52.7741 190.033 53.0171 190.132 53.0727C190.342 53.1959 191.242 53.7236 192.531 54.4765C192.942 54.7183 193.393 54.9833 193.876 55.2644C195.41 56.164 197.25 57.2375 199.068 58.2995C199.753 58.6992 200.435 59.0965 201.096 59.4822C201.378 59.6472 201.657 59.8098 201.931 59.9702C202.36 60.2186 202.777 60.4627 203.177 60.695C203.671 60.9831 204.141 61.2573 204.573 61.5081C204.75 61.6102 204.92 61.7102 205.083 61.8029C206.482 62.6159 207.392 63.143 207.411 63.1421C207.423 63.1312 207.43 63.1131 207.425 63.088C207.424 63.0576 207.412 63.0278 207.397 63.0032L207.091 62.4689C206.949 62.2226 206.696 61.7692 206.351 61.1481C206.269 61.0002 206.182 60.845 206.09 60.6799C205.889 60.3125 205.662 59.9008 205.413 59.4523C205.224 59.1096 205.023 58.7422 204.811 58.3576C204.662 58.0864 204.506 57.8055 204.348 57.5144C204.102 57.0682 203.843 56.5973 203.575 56.1117C203.421 55.8255 203.261 55.5346 203.098 55.2388C189.582 30.5787 194.495 37.4328 203.773 54.7658C203.936 55.0667 204.096 55.3677 204.257 55.6687C204.513 56.1474 204.77 56.6235 205.026 57.1021C205.181 57.3958 205.336 57.687 205.493 57.9781C205.689 58.3483 205.885 58.716 206.08 59.0837C206.302 59.4982 206.524 59.9152 206.743 60.3299C206.83 60.4902 206.915 60.6506 207 60.811C207.327 61.4255 205.501 61.2899 205.828 61.9044C206.079 62.5483 208.085 63.7299 209.498 63.631C209.508 63.6305 209.521 63.6298 209.531 63.6216C209.541 63.616 209.548 63.608 209.556 63.6C209.567 63.579 209.569 63.5561 209.557 63.5364L208.471 61.5312C208.23 61.1432 208.035 60.8744 207.764 60.4118C207.683 60.274 207.593 60.1164 207.494 59.9339C207.488 59.919 207.48 59.9042 207.471 59.8895L206.878 58.6446L206.745 58.3649L206.322 57.5221L206.307 57.495C206.293 57.4704 206.126 57.1595 205.835 56.6117C205.633 56.2316 205.37 55.7381 205.061 55.1506C204.906 54.8594 204.739 54.546 204.561 54.2129C200.25 46.0583 189.409 25.5025 189.059 24.9045C189.03 24.8553 189.042 24.7912 189.087 24.7558L198.53 17.2625L206.242 11.2843L207.23 10.5506C207.34 10.5244 207.438 10.4734 207.522 10.4054C207.537 10.3919 207.543 10.3738 207.537 10.3588C207.533 10.3413 207.522 10.3241 207.506 10.3174L207.509 10.3172ZM177.294 7.45751C177.342 7.09189 177.684 6.83226 178.058 6.88063C178.434 6.92887 178.697 7.26242 178.652 7.63043C178.604 7.99605 178.261 8.25568 177.888 8.20731C177.512 8.1616 177.248 7.82551 177.294 7.45751ZM178.075 56.8485C178.075 56.8485 178.065 56.8591 178.06 56.862C178.033 56.8913 177.998 56.9135 177.955 56.926C177.937 56.9321 177.919 56.9381 177.901 56.9391C177.333 56.1955 177.032 55.3588 176.989 54.4269C176.961 54.2964 176.938 54.1707 176.926 54.0496C176.899 53.7718 176.914 53.5145 176.978 53.2775C177.056 52.9814 177.216 52.8306 177.454 52.8304C177.499 52.8382 177.546 52.8534 177.594 52.8711C177.832 52.9395 178.003 53.0725 178.105 53.27C178.14 53.3341 178.165 53.4039 178.185 53.4789C178.207 53.5818 178.29 54.0216 178.326 54.2786C178.343 54.3944 178.358 54.5079 178.37 54.6215C178.426 55.0805 178.45 55.5411 178.452 56.0031C178.365 56.3708 178.239 56.6517 178.075 56.8485ZM180.253 8.30559C180.232 8.31429 180.212 8.323 180.194 8.32904C180.161 8.34097 180.131 8.35024 180.097 8.35458C180.051 8.36468 180.005 8.36719 179.955 8.36478C179.94 8.36815 179.924 8.36646 179.909 8.36476C179.844 8.36066 179.773 8.34671 179.704 8.32503C179.667 8.31433 179.633 8.30097 179.596 8.28521C179.525 8.27885 179.457 8.26476 179.391 8.24042C179.34 8.22282 179.304 8.17909 179.296 8.12876C179.233 7.80724 179.26 7.5164 179.384 7.25329C179.425 7.16475 179.512 7.1042 179.613 7.09623C180.367 7.04538 180.69 7.29447 180.578 7.84632C180.534 8.0746 180.424 8.22778 180.253 8.30559ZM201.677 56.2319C201.74 56.2057 201.81 56.1994 201.879 56.221C202.219 56.3169 202.515 56.4558 202.767 56.6452C202.987 56.8035 203.175 56.999 203.331 57.2317C203.486 57.4391 203.626 57.6549 203.751 57.8792C203.904 58.1502 204.035 58.435 204.146 58.7286C204.202 58.883 204.253 59.0427 204.299 59.2027C204.451 59.7098 204.27 60.0292 203.757 60.1585C203.595 60.2357 203.431 60.2116 203.268 60.0859C203.05 59.9174 202.85 59.7403 202.668 59.5547C202.453 59.3429 202.264 59.117 202.094 58.88C201.899 58.6062 201.731 58.3157 201.589 58.0086C201.514 57.8426 201.457 57.6781 201.43 57.5171C201.386 57.3113 201.382 57.1084 201.414 56.9112C201.311 56.8254 201.349 56.638 201.529 56.3542C201.538 56.341 201.548 56.3277 201.563 56.3142C201.592 56.2771 201.632 56.2496 201.677 56.2345L201.677 56.2319ZM201.662 11.6889C201.641 11.855 201.569 12.0011 201.464 12.1133C201.432 12.1455 201.4 12.1752 201.366 12.2024C201.205 12.3253 200.996 12.3874 200.779 12.3585C200.726 12.3511 200.677 12.3411 200.626 12.3236C200.603 12.3172 200.579 12.3058 200.555 12.297C200.494 12.2698 200.437 12.2348 200.386 12.1969L200.344 12.1611C200.312 12.1324 200.281 12.0985 200.253 12.0645C200.228 12.0328 200.205 12.001 200.188 11.9664C200.15 11.9025 200.123 11.8329 200.108 11.7651C200.105 11.7501 200.102 11.7376 200.098 11.7225C200.094 11.6923 200.089 11.6621 200.087 11.6317C200.086 11.6039 200.084 11.576 200.087 11.5454C200.087 11.5403 200.087 11.5353 200.089 11.5326C200.089 11.5199 200.088 11.5048 200.092 11.4893C200.094 11.4765 200.095 11.4612 200.1 11.4483C200.104 11.4227 200.11 11.3969 200.119 11.3711C200.118 11.3635 200.12 11.3558 200.125 11.3479C200.131 11.3222 200.143 11.2987 200.154 11.2727C200.181 11.2078 200.222 11.1472 200.271 11.0938C200.282 11.0729 200.297 11.0568 200.314 11.0432C200.336 11.0192 200.363 10.9974 200.391 10.9756C200.396 10.9753 200.4 10.9675 200.406 10.9672C200.428 10.9508 200.45 10.9368 200.473 10.9229C200.54 10.8812 200.617 10.8543 200.693 10.8374C200.709 10.8315 200.724 10.8307 200.739 10.8273C200.768 10.8258 200.796 10.8192 200.824 10.8177C200.876 10.8149 200.925 10.8122 200.975 10.8222C201.142 10.8437 201.292 10.9143 201.409 11.0171C201.442 11.0483 201.473 11.0797 201.501 11.1137C201.627 11.2719 201.691 11.4766 201.662 11.6889Z" fill="#282021"/>
<path d="M188.367 9.58022C188.364 9.60834 188.352 9.63181 188.338 9.6529L186.593 12.1946C186.187 12.7776 185.778 13.3582 185.365 13.9366C185.048 14.5275 184.642 15.0698 184.162 15.5451C184.126 15.5826 184.1 15.6297 184.085 15.6813C184.042 15.8309 183.954 15.9676 183.834 16.0706C183.789 16.1086 183.773 16.0993 183.778 16.0432C183.838 15.5296 183.867 15.1574 183.867 14.9314C183.865 14.764 183.914 14.6268 184.011 14.52C184.123 14.0569 184.196 13.5884 184.23 13.1118C184.293 12.2046 184.426 11.3062 184.624 10.4196C184.779 9.22057 185.111 8.05253 185.612 6.94897C185.631 6.90989 185.67 6.87982 185.714 6.87239C185.76 6.86735 185.808 6.88255 185.838 6.91645L188.15 9.28221C188.257 9.33737 188.326 9.41234 188.36 9.50697C188.369 9.53186 188.371 9.55717 188.367 9.58022Z" fill="#282021"/>
<path d="M152.235 28.1253C158.114 38.9497 159.178 40.299 154.275 52.1309C151.155 61.0263 153.913 59.7503 144.444 60.1881C143.875 60.1269 142.705 60.9194 142.504 60.1491C142.601 58.7895 142.935 57.452 143.303 56.1407C145.16 46.4933 148.246 37.1379 152.235 28.125V28.1253Z" fill="#282021"/>
<path d="M166.938 8.01358C167.083 7.51265 166.201 6.28599 167.127 6.36666C170.724 6.53861 169.421 10.5875 168.519 12.7073C166.73 17.1489 164.948 21.6042 163.237 26.0701C161.353 22.9315 159.838 19.5018 158.066 16.2694C157.897 14.0429 159.65 11.8453 160.657 9.88505C161.518 8.82908 163.75 4.93973 165.292 6.49537C166.395 9.32217 162.714 12.147 161.896 14.7844C162.786 15.5837 167.497 9.22279 166.938 8.01384V8.01358Z" fill="#282021"/>
<path d="M117.561 23.5983C119.127 24.1658 121.692 24.3286 122.09 22.3084C124.63 25.8802 126.304 31.0288 128.552 35.1197C129.034 36.2027 129.269 34.3217 129.47 33.9267C132.178 26.3103 133.925 18.3587 137.016 10.914C139.332 5.94414 143.363 3.41168 149.001 3.72751C149.437 3.83523 150.103 3.53406 150.296 4.0709C150.93 5.52893 151.643 6.95359 152.334 8.38659C158.941 22.3765 166.681 36.1514 172.814 50.2073C170.871 50.8003 168.293 52.9188 166.356 51.6056C164.431 49.2267 163.411 46.2616 162.03 43.5693C158.13 34.722 153.37 26.2775 149.216 17.5465C149.055 17.0597 148.598 16.6336 148.464 17.3985C144.437 30.3544 140.351 43.2843 137.445 56.5355C137.009 57.6332 137.204 59.2025 136.382 60.0365C135.891 60.2825 135.141 60.8252 134.726 60.1996C132.884 56.7634 131.058 53.3183 129.228 49.8763C124.325 40.7908 119.821 31.5062 115.34 22.2237C115.215 22.0632 115.332 21.8098 115.569 21.9185C117.383 22.3909 119.366 21.9013 120.546 20.4479C121.337 19.2219 121.299 20.0377 121.703 20.9071C121.233 22.5704 119.31 23.5531 117.561 23.5986L117.561 23.5983ZM123.482 34.8575C123.594 35.7185 124.516 37.7801 125.608 36.6908C126.292 35.5602 123.864 32.4864 123.482 34.8575ZM163.506 37.7713C163.394 38.8528 165.347 41.1814 165.71 39.1239C165.829 38.0211 163.851 35.6528 163.506 37.7713ZM165.612 41.712C165.653 42.7631 167.487 42.1312 166.867 41.2485C166.408 40.6901 165.506 40.9814 165.612 41.712Z" fill="#282021"/>
<path d="M123.48 34.8579C123.862 32.4865 126.29 35.5611 125.606 36.6912C124.513 37.78 123.593 35.7197 123.48 34.8579Z" fill="#282021"/>
<path d="M163.505 37.7713C163.85 35.6528 165.827 38.0211 165.709 39.1241C165.346 41.1817 163.392 38.8525 163.505 37.7713Z" fill="#282021"/>
<path d="M165.61 41.7123C165.505 40.982 166.407 40.6902 166.866 41.2491C167.485 42.1321 165.652 42.7635 165.61 41.7123Z" fill="#282021"/>
<path d="M107.976 23.8573C108.338 21.2715 106.206 21.1622 106.196 20.3864C110.979 18.3099 111.423 25.7475 113.046 28.5151C116.184 37.0896 121.682 44.5856 125.113 53.0319C125.271 53.614 126.187 54.7498 125.719 55.1613C124.572 55.7904 123.423 56.415 122.278 57.0464C120.003 57.98 119.782 60.1238 118.131 57.0454C112.739 49.4862 109.626 40.8879 106.304 32.3554C105.296 30.3302 101.117 21.6199 104.955 21.0793C107.315 21.0072 106.334 27.9495 107.634 26.5994C107.904 25.7331 107.917 24.6761 107.976 23.8576V23.8573Z" fill="#282021"/>
<path d="M113.638 61.2411C108.079 57.3725 101.469 54.1247 96.6132 49.6221C94.9613 42.8711 92.2556 36.4235 90.1532 29.8021C89.5856 29.0491 89.718 30.4995 89.6868 30.8351C89.5853 37.2197 89.0557 43.5986 89.1353 49.9845C88.7971 51.1156 90.3387 57.7569 89.0024 57.2284C83.4467 56.2804 82.3949 50.1367 81.8557 45.555C81.6621 31.3876 81.3138 16.6599 81.5544 2.72915C85.0707 2.63863 89.1793 1.89697 92.3797 3.22553C91.4851 7.17229 90.7913 11.161 90.3712 15.1826C90.4573 15.8019 89.6819 16.9021 90.1381 17.2978C92.4435 15.4365 94.6718 13.4826 96.9498 11.5886C99.1859 9.92474 101.171 7.59381 103.552 6.27764C104.46 6.41343 105.36 6.58412 106.276 6.66276C109.725 7.32957 113.56 7.6406 116.786 8.7345C110.48 12.9379 104.163 17.4046 97.9282 21.7966C101.217 32.6853 108.258 44.3486 112.774 55.4861C113.602 57.5993 114.687 59.5889 115.654 61.6404C115.626 62.3188 113.339 61.2917 113.284 60.8739C93.9249 18.0453 93.2215 19.5307 113.639 61.2404L113.638 61.2411ZM110.749 57.4519C110.513 56.1456 109.916 54.5594 108.506 54.1014C106.543 54.3634 109.87 59.9664 110.749 57.4519ZM84.5223 53.4849C85.4588 52.6687 85.0015 51.2273 84.9547 50.1501C83.3273 47.4017 83.3543 52.872 84.5223 53.4849ZM110.911 9.58666C110.947 8.5542 109.288 8.58986 109.331 9.59703C109.329 10.5693 110.936 10.5868 110.911 9.58666ZM88.7313 4.69115C88.6858 5.4801 90.1358 5.39438 90.0799 4.61453C90.1483 3.69915 88.5583 3.74214 88.7313 4.69115ZM87.4413 4.97487C88.3177 5.01963 88.3635 3.67361 87.49 3.65692C86.6057 3.62886 86.5597 4.94326 87.4413 4.97487Z" fill="#282021"/>
<path d="M94.8868 48.8162C91.901 49.0056 90.6154 47.5306 91.4403 44.704C91.4725 35.9387 94.5637 46.0824 94.8868 48.8162Z" fill="#282021"/>
<path d="M110.747 57.4521C109.869 59.9663 106.541 54.3638 108.505 54.1016C109.915 54.5598 110.51 56.1455 110.747 57.4521Z" fill="#282021"/>
<path d="M84.5251 53.485C83.3571 52.8711 83.3301 47.4025 84.9577 50.1499C85.0046 51.2272 85.4616 52.6685 84.5251 53.485Z" fill="#282021"/>
<path d="M110.908 9.58585C110.934 10.5859 109.327 10.5685 109.329 9.59622C109.286 8.5893 110.945 8.55339 110.908 9.58585Z" fill="#282021"/>
<path d="M88.7319 4.6913C88.5589 3.74229 90.1491 3.6993 90.0807 4.61468C90.1364 5.39452 88.6867 5.48025 88.7319 4.6913Z" fill="#282021"/>
<path d="M87.443 4.97465C86.5614 4.94304 86.6075 3.62838 87.4917 3.6567C88.3652 3.67339 88.3194 5.0194 87.443 4.97465Z" fill="#282021"/>
<path d="M69.4015 30.9256C74.8207 32.1522 77.8788 37.0743 78.1299 42.2338C78.3694 46.1173 78.68 51.112 75.4432 53.9279C69.7111 56.3845 68.7652 48.0323 68.3108 44.2843C67.6079 40.0445 67.6334 36.499 62.1609 36.2866C60.6547 37.8478 63.871 56.8675 60.887 56.4578C60.1851 56.3026 60.3615 55.2732 60.0158 54.8038C59.4869 54.3474 58.8101 54.3552 58.6443 55.1004C57.2805 57.4425 55.4647 54.9136 55.5417 53.1486C54.2683 41.0645 53.3238 28.9565 53.0051 16.8174C53.1399 15.6092 52.1074 11.2816 52.932 10.8484C61.5339 7.99381 70.3143 5.57437 78.3736 1.4668C78.0307 9.69029 80.3181 28.2563 69.4018 30.9253L69.4015 30.9256ZM61.4832 23.4248C61.6833 23.8595 60.9099 26.6835 62.1892 26.071C65.6748 25.605 69.2928 23.2887 68.6151 19.4545C68.4973 15.8721 63.827 16.2507 61.2486 16.8366C61.0311 16.8897 61.0061 16.9279 61.0272 17.1587C61.2475 19.3073 61.3901 21.0291 61.4835 23.4248H61.4832ZM72.9237 52.7321C74.2882 52.7288 74.2476 50.8217 72.9851 50.8513C71.7432 50.8374 71.6288 52.7361 72.9237 52.7321ZM73.5533 6.97981C74.8337 6.9922 74.8462 5.04209 73.5463 5.07344C72.358 5.08558 72.2079 6.90091 73.5533 6.97981Z" fill="#282021"/>
<path d="M79.897 28.3802C79.7558 29.3801 80.1853 30.7458 79.7212 31.5717C78.9384 31.6599 72.442 32.5245 74.1587 30.8614C78.5815 28.7613 78.1406 23.2478 79.6975 19.4355C79.8562 22.3258 79.7709 25.4222 79.8968 28.3802H79.897Z" fill="#282021"/>
<path d="M72.9218 52.7308C71.6268 52.7346 71.7413 50.8358 72.9832 50.8499C74.2456 50.8206 74.2862 52.7275 72.9218 52.7308Z" fill="#282021"/>
<path d="M73.556 6.979C72.2106 6.90011 72.3607 5.08477 73.549 5.07263C74.8489 5.04153 74.8364 6.99139 73.556 6.979Z" fill="#282021"/>
<path d="M51.2873 53.1639C51.458 54.3246 49.8467 54.6485 49.4807 53.7713C49.2226 52.904 48.7596 51.2467 50.1953 51.2067C51.2449 51.1504 51.1755 52.5358 51.2876 53.1639H51.2873Z" fill="#282021"/>
<path d="M45.1994 57.6116C42.7993 48.676 42.7174 39.2623 42.8253 30.0607C42.7738 23.0451 41.5491 15.8045 43.566 8.94398C43.945 7.54082 45.7207 4.70972 46.7016 7.33878C47.1228 9.07547 46.3713 10.8033 46.1171 12.515C45.4366 16.6638 47.5206 12.2045 47.8858 10.8759C48.3449 9.53291 48.4183 8.00964 47.5708 6.7936C47.4836 6.60218 47.1254 6.28205 47.4735 6.1857C53.333 5.9953 49.9305 18.7406 50.6196 22.5257C50.8043 33.6549 52.6931 44.7262 52.4358 55.8708C51.9395 56.7951 50.2137 56.3245 49.27 56.5399C47.7903 56.4643 46.589 57.3658 45.1991 57.6113L45.1994 57.6116ZM51.286 53.1636C51.1742 52.536 51.2434 51.1498 50.1937 51.2067C48.7578 51.2469 49.2216 52.9032 49.4794 53.7713C49.8454 54.6482 51.4564 54.3246 51.286 53.1639V53.1636Z" fill="#282021"/>
<path d="M1.24562 57.7761C6.44655 46.5224 12.4515 35.675 18.0657 24.6189C18.4977 23.9952 17.4276 24.232 17.0639 24.2765C6.74461 26.6556 8.60152 24.846 1.29024 18.723C0.897103 18.3131 0.402472 17.9738 0 17.6007C3.06083 16.8012 6.51771 16.4049 9.67507 15.5717C18.7762 13.7536 27.4115 10.475 36.1828 7.60742C38.5081 10.3922 32.2406 22.2475 30.7019 25.9051C26.5299 33.5899 23.3305 41.8056 18.7808 49.2656C18.404 49.6114 18.78 49.8643 19.1792 49.7912C24.806 49.3965 30.4464 49.665 36.0801 49.7024C36.7515 49.8932 38.1884 49.2721 38.4215 50.0055C38.4521 52.3066 39.1313 54.5131 39.4676 56.7737C39.5813 57.2848 39.815 57.9054 38.98 57.7826C26.3992 57.7421 13.8267 57.5156 1.24591 57.7756L1.24562 57.7761ZM27.7921 16.7462C29.1579 16.8378 29.6791 14.8184 28.5358 14.3549C26.5442 13.317 25.3598 16.7216 27.7921 16.7462ZM32.6679 12.614C32.6113 11.3771 30.5838 11.4675 30.3178 12.5853C29.8768 14.4122 32.809 14.3002 32.6679 12.614Z" fill="#282021"/>
<path d="M31.871 47.5726C24.7673 48.1501 28.487 45.2967 30.033 41.4225C33.3283 34.1054 35.5378 26.3881 37.8634 18.7427C38.4444 17.1001 38.1822 20.116 38.2055 20.6212C37.9463 29.3532 36.9602 38.0647 37.1979 46.8086C37.2023 47.4947 37.2478 47.4646 36.5466 47.4618C34.9146 47.4553 33.2869 47.6157 31.8707 47.5729L31.871 47.5726Z" fill="#282021"/>
<path d="M13.5463 26.694C15.7573 26.1959 11.7145 31.0468 11.5202 32.0297C10.7593 33.0664 10.4198 35.0506 9.45333 35.6355C9.46033 32.9318 7.86065 30.49 7.87115 27.7954C7.87727 27.581 7.94901 27.5246 8.13333 27.4923C9.99404 27.2077 11.599 26.7252 13.5463 26.694Z" fill="#282021"/>
<path d="M27.7924 16.7465C25.3592 16.7215 26.5453 13.3167 28.5364 14.3552C29.6785 14.819 29.1588 16.8383 27.7924 16.7465Z" fill="#282021"/>
<path d="M32.6687 12.6142C32.8099 14.3004 29.8779 14.4124 30.3186 12.5856C30.5849 11.4683 32.6121 11.377 32.6687 12.6142Z" fill="#282021"/>
<path d="M229.899 1.75909C233.557 2.61244 234.072 3.6489 236.913 3.832C239.676 4.01006 241.504 3.18022 241.874 3.832C242.32 4.61984 239.98 6.41221 240.25 6.70282C240.469 6.938 241.978 5.6966 243.927 5.04651C246.004 4.35274 249.374 4.06717 250.77 5.26825C253.146 7.31092 248.442 12.473 246.664 22.0094C246.049 25.3119 246.702 24.21 245.638 40.6639C245.309 45.7353 244.345 49.1588 241.508 51.5575C239.021 53.659 235.553 54.2755 235.643 54.551C235.74 54.8483 239.5 53.2575 240.763 54.5577C241.644 55.4648 241.103 57.2404 239.821 60.1163C236.865 66.7432 240.129 71.8112 237.597 75.1037C237.143 75.695 236.225 76.6021 235.886 78.1324C235.674 79.0933 235.835 79.6392 235.373 80.2843C235 80.805 234.387 81.1594 232.816 81.5156C230.118 82.1253 228.135 81.6802 225.805 81.4165C224.791 81.3022 224.57 80.2171 224.067 79.3872C222.353 76.555 222.23 73.7548 222.202 73.1904C221.934 67.7477 220.32 64.3948 219.541 58.5725C219.28 56.6205 219.197 54.8131 219.123 51.1863C218.985 44.3057 218.881 35.3388 222.613 33.0291C222.992 32.7939 224.193 32.1438 224.096 31.4853C224.001 30.8419 222.733 30.6168 222.083 30.3531C219.242 29.1991 219.344 23.6892 218.781 19.4577C217.512 9.92305 212.942 7.62672 215.017 4.47033C216.984 1.48024 222.698 1.19467 224.044 1.12916C226.588 1.00317 228.829 1.51048 229.899 1.76077V1.75909Z" fill="#282021"/>
<path d="M230.649 1.44854C234.307 2.3019 234.822 3.33835 237.663 3.52145C240.426 3.69951 242.254 2.86968 242.624 3.52145C243.07 4.30929 240.73 6.10166 241 6.39227C241.219 6.62745 242.728 5.38606 244.677 4.73596C246.754 4.0422 250.124 3.75663 251.52 4.9577C253.896 7.00037 249.192 12.1625 247.414 21.6989C246.799 25.0014 247.452 23.8994 246.388 40.3533C246.059 45.4247 245.095 48.8482 242.258 51.247C239.771 53.3485 236.303 53.965 236.393 54.2405C236.49 54.5378 240.25 52.947 241.513 54.2472C242.394 55.1543 241.853 56.9299 240.571 59.8057C237.615 66.4326 240.879 71.5007 238.347 74.7931C237.893 75.3844 236.975 76.2915 236.636 77.8219C236.424 78.7827 236.585 79.3287 236.123 79.9737C235.75 80.4945 235.137 80.8489 233.566 81.205C230.868 81.8148 228.885 81.3697 226.555 81.1059C225.541 80.9917 225.32 79.9065 224.817 79.0767C223.103 76.2445 222.98 73.4442 222.952 72.8798C222.684 67.4372 221.07 64.0842 220.291 58.262C220.03 56.31 219.947 54.5025 219.873 50.8758C219.735 43.9952 219.631 35.0283 223.363 32.7185C223.742 32.4833 224.943 31.8332 224.846 31.1748C224.751 30.5314 223.483 30.3063 222.833 30.0426C219.992 28.8885 220.094 23.3787 219.531 19.1472C218.262 9.6125 213.692 7.31618 215.767 4.15978C217.734 1.16969 223.448 0.884123 224.794 0.818609C227.338 0.692622 229.579 1.19993 230.649 1.45022V1.44854Z" fill="#282021"/>
<path d="M228.808 77.5105C226.07 81.5083 222.935 70.2145 226.492 70.6426C228.737 72.0798 229.019 75.1202 228.808 77.5105Z" fill="#282021"/>
<path d="M234.258 86.7986C233.814 86.7835 233.481 86.7214 232.866 86.765C232.163 86.8154 231.662 86.9615 231.517 86.9985C230.034 87.383 228.316 86.1336 226.404 85.9439C223.676 85.6718 220.977 87.6131 221.119 88.4023C221.243 89.0908 223.571 89.1462 223.564 89.6634C223.559 90.1067 221.851 90.1655 221.754 90.7751C221.697 91.1428 222.224 91.5979 224.476 92.7281C225.451 93.2184 226.418 93.7222 227.392 94.2175C230.578 95.838 231.277 96.33 231.267 96.9346C231.258 97.4383 230.761 97.9388 230.651 98.0446C230.084 98.5886 229.397 98.6205 229.393 98.8859C229.393 98.9833 229.485 99.1042 230.022 99.3342C230.835 99.6835 231.578 99.8195 232.422 99.9186C233.653 100.063 233.831 99.9824 233.921 99.9303C234.422 99.6499 234.539 99.042 234.681 98.3183C234.833 97.5374 235.03 96.5215 234.695 95.3813C234.61 95.0924 234.493 94.8053 234.636 94.5316C234.81 94.1974 235.246 94.1151 235.758 93.9942C236.722 93.7658 237.535 93.4988 237.748 93.4165C238.929 92.9648 240.036 91.1865 239.656 89.3763C239.5 88.6374 239.405 88.4225 239.278 88.3519C238.877 88.1286 238.297 88.5182 238.171 88.3452C238.046 88.1756 238.616 87.8112 238.556 87.3981C238.482 86.8843 237.47 86.5048 236.617 86.451C235.636 86.3906 235.546 86.844 234.254 86.7986H234.258Z" fill="#282021"/>
<path d="M234.93 86.4353C234.486 86.4202 234.153 86.3581 233.538 86.4018C232.835 86.4521 232.334 86.5982 232.189 86.6352C230.706 87.0197 228.988 85.7704 227.076 85.5806C224.348 85.3086 221.649 87.2498 221.79 88.039C221.915 88.7275 224.243 88.7829 224.236 89.3001C224.23 89.7435 222.523 89.8022 222.426 90.4118C222.369 90.7796 222.896 91.2346 225.147 92.3648C226.123 92.8551 227.09 93.3589 228.064 93.8543C231.25 95.4747 231.949 95.9668 231.939 96.5713C231.93 97.0751 231.433 97.5755 231.322 97.6813C230.756 98.2254 230.069 98.2573 230.065 98.5226C230.065 98.62 230.157 98.7409 230.694 98.9709C231.507 99.3202 232.25 99.4562 233.094 99.5553C234.325 99.6997 234.503 99.6191 234.593 99.5671C235.094 99.2866 235.211 98.6788 235.353 97.955C235.505 97.1741 235.702 96.1582 235.367 95.018C235.282 94.7292 235.165 94.442 235.308 94.1683C235.482 93.8341 235.917 93.7518 236.43 93.6309C237.394 93.4025 238.207 93.1355 238.42 93.0533C239.601 92.6015 240.708 90.8232 240.328 89.013C240.172 88.2741 240.077 88.0592 239.95 87.9886C239.549 87.7653 238.969 88.1549 238.843 87.9819C238.718 87.8123 239.288 87.4479 239.228 87.0348C239.153 86.521 238.142 86.1415 237.289 86.0877C236.308 86.0273 236.218 86.4807 234.926 86.4353H234.93Z" fill="#282021"/>
<path d="M224.096 15.7854C222.617 19.7984 222.228 9.13174 222.322 8.39832C223.513 7.81368 223.814 13.3675 224.096 15.7854Z" fill="#282021"/>
<path d="M207.933 97.5655C207.933 97.5655 207.932 97.569 207.93 97.5707C207.797 97.5639 207.661 97.5572 207.528 97.5503L207.524 97.5504C207.248 97.5354 206.974 97.5237 206.697 97.5104C204.871 97.425 203.045 97.36 201.218 97.3138C200.746 97.3011 200.273 97.2902 199.799 97.2827L199.796 97.2828C199.756 97.2809 199.718 97.2807 199.679 97.2805C199.56 97.2782 199.44 97.2742 199.321 97.2737C199.304 97.2726 199.291 97.2731 199.274 97.272C198.981 97.2526 198.688 97.2433 198.394 97.2425C198.147 97.2434 197.89 97.2515 197.643 97.2677C197.637 97.268 197.63 97.2648 197.625 97.265C197.608 97.2656 197.592 97.2663 197.575 97.2669C197.327 97.2576 197.081 97.2499 196.833 97.2406C196.581 97.2332 196.328 97.2224 196.077 97.2133C196.054 97.2141 196.03 97.2116 196.007 97.2108C195.836 97.2037 195.666 97.1983 195.496 97.1911C195.257 97.1832 195.018 97.1736 194.778 97.164C194.578 97.1562 194.978 97.1734 194.778 97.164C193.418 97.1102 191.46 97.0298 190.103 96.964C189.846 96.9857 189.589 96.9921 189.331 96.9865C189.308 96.9874 189.286 96.9781 189.266 96.9635C189.249 96.9506 189.236 96.9323 189.232 96.9104L189.16 96.503L188.789 94.2015C188.767 93.925 188.728 93.6508 188.673 93.379C188.589 92.967 188.576 92.5438 188.635 92.1298C188.643 91.5204 188.674 90.9084 188.729 90.3023C188.749 90.0633 188.801 89.8861 188.879 89.7742C188.879 89.7708 188.879 89.7691 188.879 89.7674C189.061 88.5797 189.945 86.3495 189.946 86.3409C190.424 85.1658 197.441 73.4464 197.441 73.4464C197.459 73.4151 197.46 73.3777 197.443 73.3442C197.426 73.3126 197.393 73.2917 197.357 73.2914L192.144 73.0642C192.077 73.0549 192.008 73.0439 192.019 72.9754C192.028 72.907 191.998 72.8503 192.016 72.8139C192.104 72.6234 192.172 72.4268 192.219 72.2209C192.262 72.0321 192.274 71.824 192.257 71.5967C192.203 70.9386 192.05 70.2927 191.801 69.6846C191.717 69.4734 191.697 69.4792 191.744 69.7021C191.936 70.5999 191.915 71.4753 191.68 72.3264C191.631 72.5104 191.57 72.6947 191.499 72.8761C191.496 72.8881 191.49 72.9003 191.485 72.9123C191.49 72.9121 191.497 72.9119 191.505 72.9116L191.504 73.1005L190.935 73.146C190.918 73.1466 190.903 73.1387 190.894 73.1254C190.885 73.1121 190.881 73.0952 190.887 73.0797C191.033 72.6896 191.139 72.2959 191.206 71.9021C191.255 71.6195 191.284 71.3359 191.293 71.0532C191.298 70.8896 191.295 70.723 191.285 70.5583C191.276 70.3698 191.257 70.18 191.228 69.9905C191.175 69.6318 191.091 69.2743 190.975 68.9146C190.952 68.8525 190.927 68.7905 190.901 68.7268C190.816 68.5191 190.899 68.4564 191.143 68.5441C191.251 68.5383 196.256 68.6865 198.652 68.8524C200.713 68.9935 207.566 69.4696 207.75 69.495C207.819 69.5723 207.796 69.7059 207.681 69.8957C207.61 69.9444 207.552 70.0129 207.517 70.0925C207.019 70.7036 206.564 71.347 206.152 72.0195C206.113 72.0856 206.032 72.1823 205.907 72.3095C205.816 72.4048 205.744 72.5165 205.696 72.6408C204.882 73.7896 204.081 74.9481 203.296 76.1214C202.723 76.9769 202.148 77.8291 201.569 78.6814C200.251 80.6354 198.991 82.6332 197.794 84.6677C197.726 84.7809 197.657 84.8975 197.592 85.0123C197.481 85.202 197.37 85.39 197.26 85.5796C197.045 85.9485 196.827 86.3158 196.61 86.6848C195.94 87.8213 195.262 88.9513 194.578 90.0765C194.441 90.3012 194.305 90.5224 194.166 90.7472C194.166 90.7472 194.164 90.7507 194.164 90.7524L194.165 90.7558C193.971 91.0711 193.779 91.3864 193.583 91.7018C193.488 91.8585 193.391 92.017 193.294 92.1722C193.275 92.2035 193.272 92.2428 193.29 92.2744C193.306 92.3078 193.338 92.3287 193.373 92.3308C193.425 92.3322 193.476 92.3354 193.528 92.3385C193.678 92.3464 193.827 92.3527 193.976 92.3606C194.079 92.3652 194.18 92.3716 194.283 92.3778C194.601 92.3947 194.917 92.4133 195.235 92.4352C195.45 92.4492 195.667 92.4631 195.881 92.4787C196.038 92.4898 196.194 92.4992 196.351 92.5136C196.566 92.5293 196.782 92.5449 196.997 92.5605C197.21 92.5779 197.424 92.5953 197.637 92.6144C197.832 92.6309 198.025 92.6456 198.218 92.6655C198.357 92.6773 198.495 92.689 198.633 92.7042C198.77 92.716 198.903 92.7296 199.04 92.7415L199.045 92.7413C199.723 92.8073 200.406 92.8461 201.089 92.8609C201.142 92.8691 201.194 92.879 201.246 92.8907L202.307 92.881C202.988 92.9061 203.669 92.9415 204.348 92.9888C204.728 93.0135 205.107 93.0433 205.486 93.0765C205.679 93.0947 205.741 93.2251 205.669 93.4694L205.663 93.5054L205.658 93.5872C205.661 93.5735 205.662 93.5616 205.663 93.5479C205.768 93.9931 205.913 94.4266 206.098 94.8432C206.1 94.8499 206.102 94.855 206.106 94.8599C206.129 94.9135 206.155 94.967 206.18 95.0204C206.245 95.1609 206.317 95.3011 206.394 95.4394C206.394 95.4428 206.396 95.4461 206.397 95.4477C206.404 95.4594 206.412 95.4744 206.419 95.4861C206.49 95.6161 206.566 95.7442 206.649 95.8703C206.964 96.3552 207.354 96.8048 207.822 97.2226L207.826 97.2225C207.851 97.247 207.877 97.2682 207.903 97.291C207.946 97.3285 207.971 97.3701 207.974 97.4159C207.977 97.4566 207.964 97.5031 207.936 97.5518L207.935 97.5519L207.933 97.5655Z" fill="#282021"/>
<path d="M191.714 97.1085C191.699 97.2336 191.623 97.2743 191.486 97.2323C191.62 96.7062 191.586 96.1978 191.385 95.7053C191.382 95.6997 191.346 95.5765 191.274 95.332C191.223 95.1584 191.109 95.0344 190.928 94.9582C191.098 94.8423 191.235 94.888 191.342 95.0972C191.673 95.7547 191.798 96.4257 191.714 97.1085Z" fill="#282021"/>
<path d="M191.383 95.7065C191.383 95.7065 191.343 95.5778 191.272 95.3333C191.221 95.1596 191.106 95.0357 190.926 94.9595C190.911 94.9733 190.897 94.9889 190.883 95.0045C190.843 95.0514 190.812 95.1054 190.79 95.1629C190.769 95.2203 190.756 95.2831 190.753 95.3511C190.75 95.3928 190.751 95.4381 190.757 95.4832C190.81 96.021 190.935 96.5504 191.125 97.0566C191.194 97.2408 191.314 97.3004 191.484 97.2335C191.618 96.7074 191.584 96.1991 191.383 95.7065ZM191.407 97.1496C191.407 97.1496 191.4 97.1593 191.397 97.1632C191.37 97.1794 191.348 97.1764 191.332 97.1506C191.309 97.1119 191.285 97.0844 191.263 97.0683C191.214 97.0268 191.195 96.9709 191.209 96.8986C191.215 96.8625 191.226 96.8621 191.238 96.8994C191.265 96.9833 191.319 97.0529 191.391 97.0993C191.402 97.1064 191.41 97.1193 191.41 97.1325C191.41 97.1382 191.411 97.1457 191.407 97.1496Z" fill="#282021"/>
<path d="M176.525 81.9128C176.257 78.2018 177.079 72.6464 176.14 68.3944C175.977 68.1207 175.661 67.6018 176.161 67.5162C180.122 67.4356 184.114 67.6143 188.07 67.865C189.401 68.2714 188.072 70.8724 188.166 71.9374C187.482 74.036 184.011 72.7557 182.356 73.1328C181.384 73.6368 182.169 75.9956 181.872 77.0336C181.369 79.9604 184.858 78.788 186.571 78.9883C187.592 78.7349 186.363 83.1736 186.458 83.9955C186.373 84.3867 186.158 84.6136 185.759 84.67C179.934 84.3984 182.253 83.9339 181.92 91.3707C181.902 91.7666 182.06 92.0617 182.476 92.0397C188.72 91.4913 186.145 91.8075 186.946 96.9328C186.851 98.1218 178.867 97.2947 177.383 97.5671C176.979 97.5593 176.961 97.5395 176.899 97.1435C176.382 91.7532 176.614 87.7655 176.525 81.913L176.525 81.9128ZM187.596 71.6949C187.606 71.2166 186.885 71.2096 186.871 71.6797C186.834 72.1697 187.615 72.1914 187.596 71.6949Z" fill="#282021"/>
<path d="M174.492 70.1074C174.457 69.5905 174.614 68.1986 175.254 68.8315C175.513 69.7541 175.198 70.7784 175.209 71.7329C174.931 72.7811 174.402 70.363 174.492 70.1073L174.492 70.1074Z" fill="#282021"/>
<path d="M182.739 88.2594C182.883 87.5033 182.613 85.8539 183.79 85.981C184.542 86.3595 183.228 87.4789 183.212 88.0987C183.097 88.5713 182.697 89.1847 182.739 88.2594Z" fill="#282021"/>
<path d="M187.601 71.6832C187.621 72.1741 186.827 72.1527 186.865 71.6681C186.879 71.2033 187.611 71.2104 187.601 71.6832Z" fill="#282021"/>
<path d="M157.864 99.1357C158.266 88.8142 157.734 78.09 157.894 67.9457C161.815 67.9766 165.89 67.5882 169.718 68.5959C175.166 70.273 173.263 77.6579 169.056 79.7041C168.582 79.8852 168.915 80.126 169.247 80.1731C172.931 80.5691 175.966 84.4051 174.625 88.1322C173.465 91.0007 170.463 92.2846 167.91 93.5849C164.411 95.127 161.133 97.2291 157.864 99.1359L157.864 99.1357ZM162.03 76.4432C162.037 78.297 161.284 79.8313 163.791 78.3968C168.618 76.2987 167.644 72.3356 162.331 72.8646C161.526 72.7202 162.233 75.7668 162.03 76.4432ZM163.134 90.4366C165.478 89.323 167.948 87.0103 167.405 84.1332C166.348 82.7731 164.167 83.8814 162.72 83.9202C162.32 84.3005 162.747 85.5857 162.658 86.1982C162.758 87.6039 162.661 89.1045 163.134 90.4366L163.134 90.4366ZM160.563 72.3007C160.538 71.9402 160.451 71.5161 160.127 71.3127C158.52 71.0245 160.146 74.6883 160.563 72.3007ZM160.664 76.5751C160.501 75.6626 160.602 74.7014 160.179 73.8828C159.767 73.5347 160.231 75.7036 160.16 76.0104C160.139 76.4081 160.41 77.4753 160.665 76.5751L160.664 76.5751ZM160.289 94.2501C160.329 93.6752 160.026 91.8887 159.649 93.2232C159.466 93.9469 160.031 96.2142 160.289 94.2501ZM170.499 90.0858C169.668 90.1342 169.789 91.3385 170.525 91.3111C171.269 91.2951 171.262 90.0989 170.499 90.0858Z" fill="#282021"/>
<path d="M160.565 72.2989C160.147 74.6869 158.523 71.0222 160.129 71.3109C160.453 71.5144 160.54 71.9385 160.565 72.2989Z" fill="#282021"/>
<path d="M160.666 76.5756C160.14 78.076 159.999 74.0886 160.032 73.8145C160.721 74.3812 160.44 75.705 160.666 76.5756Z" fill="#282021"/>
<path d="M160.29 94.251C160.031 96.2156 159.466 93.9469 159.65 93.2241C160.026 91.8898 160.33 93.6759 160.29 94.251Z" fill="#282021"/>
<path d="M170.498 90.0856C171.261 90.0988 171.268 91.2948 170.524 91.3108C169.788 91.3382 169.667 90.1339 170.498 90.0856Z" fill="#282021"/>
<path d="M166.195 86.1175C166 87.415 164.794 88.5013 163.62 88.8983C162.885 88.5908 166.075 84.1051 166.195 86.1175Z" fill="#282021"/>
<path d="M208.263 9.58481C207.91 9.449 207.542 9.36984 207.162 9.34466C203.985 8.879 200.801 8.47462 197.61 8.13406C197.331 8.15418 197.054 8.14887 196.774 8.11571L194.752 7.89739C194.713 7.89442 194.674 7.89904 194.639 7.91365C194.601 7.92586 194.566 7.94805 194.534 7.9777L182.223 19.6418C182.073 19.7844 181.999 19.7529 182.005 19.552L182.019 19.0562C182.158 18.5893 182.243 18.0261 182.274 17.3695C182.46 13.3486 182.896 9.34465 183.58 5.38058C183.579 5.36793 183.581 5.35767 183.578 5.34768C183.571 5.31254 183.543 5.28863 183.509 5.28285C182.175 5.0807 180.875 4.96811 179.613 4.93974C179.6 4.94044 179.585 4.94128 179.569 4.93705C179.582 4.93636 179.592 4.93833 179.605 4.93763C179.281 4.88661 178.954 4.87635 178.623 4.90179C177.271 5.0103 175.923 5.16943 174.582 5.37635L172.629 5.54266C172.606 5.54392 172.583 5.5553 172.566 5.57146C172.549 5.59015 172.54 5.61348 172.536 5.63653C172.528 5.70808 174.144 27.498 174.161 27.52C174.174 27.5319 174.18 27.5494 174.184 27.5669C174.184 27.5669 175.006 40.4946 174.967 40.8495C174.982 43.7528 175.255 46.6472 175.783 49.5051C175.931 50.2891 176.085 50.9636 176.251 51.5233C176.468 52.2605 176.764 53.3945 176.858 53.6636L178.611 57.1204C178.691 57.2531 178.793 57.3847 178.922 57.5173C179.019 57.6213 179.132 57.7244 179.257 57.8267C180.461 58.8076 181.809 59.4127 183.3 59.6419C183.454 59.7351 183.66 59.7189 183.92 59.5983C183.983 59.5695 184.018 59.5041 184.006 59.4362C183.823 58.3672 183.661 57.2946 183.519 56.2208C183.209 53.8868 183.002 51.5397 182.893 49.1873C182.887 49.0861 182.733 42.3672 182.733 42.3672L182.613 36.1695C182.58 34.869 182.483 32.0234 182.483 32.0234C182.643 31.8015 182.88 32.0706 182.929 32.1618C182.929 32.1618 186.249 40.5477 187.716 43.86C188.651 46.1526 189.518 48.4717 190.31 50.8127C190.33 50.8751 190.441 51.359 190.582 51.7677C190.679 52.0417 190.787 52.2847 190.886 52.3402C191.096 52.4635 191.995 52.9911 193.285 53.7441C193.696 53.9859 194.147 54.2509 194.63 54.532C196.164 55.4316 198.004 56.5051 199.822 57.5671C200.507 57.9668 201.189 58.364 201.849 58.7498C202.132 58.9148 202.411 59.0774 202.685 59.2378C203.114 59.4862 203.531 59.7303 203.931 59.9625C204.425 60.2507 204.895 60.5248 205.327 60.7757C205.504 60.8778 205.674 60.9778 205.837 61.0705C206.624 61.5276 209.364 62.8904 210.252 62.8986C210.262 62.898 210.275 62.8974 210.285 62.8892C210.295 62.8836 210.302 62.8756 210.31 62.8676C210.321 62.8466 210.323 62.8237 210.311 62.804L209.225 60.7988C208.984 60.4107 208.789 60.142 208.518 59.6794C208.437 59.5416 208.347 59.384 208.248 59.2015C208.242 59.1866 208.234 59.1718 208.225 59.157L207.632 57.9121L207.499 57.6325L207.076 56.7897L207.061 56.7626C207.047 56.7379 206.88 56.4271 206.588 55.8793C206.387 55.4992 206.124 55.0057 205.814 54.4182C205.66 54.127 205.493 53.8136 205.315 53.4805C201.004 45.3259 190.162 24.7701 189.813 24.1721C189.784 24.1228 189.796 24.0588 189.841 24.0233L199.284 16.5301L206.996 10.5518L207.984 9.81818C208.094 9.79194 208.192 9.74096 208.276 9.67295C208.29 9.65946 208.297 9.64133 208.291 9.62643C208.287 9.60885 208.276 9.5917 208.26 9.58495L208.263 9.58481ZM178.048 6.72509C178.096 6.35947 178.438 6.09983 178.812 6.14821C179.188 6.19645 179.451 6.53 179.406 6.89801C179.358 7.26362 179.015 7.52326 178.642 7.47489C178.266 7.42918 178.002 7.09309 178.048 6.72509ZM178.829 56.116C178.829 56.116 178.819 56.1267 178.814 56.1295C178.787 56.1589 178.752 56.1811 178.709 56.1936C178.691 56.1996 178.673 56.2057 178.655 56.2066C178.087 55.463 177.786 54.6264 177.743 53.6945C177.715 53.564 177.692 53.4383 177.679 53.3171C177.653 53.0393 177.668 52.7821 177.732 52.5451C177.81 52.249 177.97 52.0982 178.208 52.098C178.253 52.1058 178.3 52.121 178.348 52.1387C178.585 52.2071 178.757 52.34 178.859 52.5376C178.894 52.6017 178.919 52.6714 178.939 52.7465C178.961 52.8494 179.044 53.2892 179.08 53.5462C179.097 53.662 179.112 53.7755 179.124 53.889C179.18 54.348 179.204 54.8087 179.206 55.2706C179.119 55.6384 178.993 55.9193 178.829 56.116ZM181.007 7.57316C180.986 7.58187 180.966 7.59058 180.948 7.59661C180.915 7.60855 180.885 7.61781 180.851 7.62216C180.805 7.63226 180.759 7.63477 180.709 7.63236C180.694 7.63573 180.678 7.63403 180.663 7.63234C180.598 7.62824 180.527 7.61429 180.458 7.59261C180.421 7.58191 180.387 7.56854 180.35 7.55278C180.279 7.54643 180.211 7.53234 180.145 7.50799C180.094 7.4904 180.058 7.44667 180.05 7.39634C179.987 7.07481 180.013 6.78398 180.138 6.52087C180.179 6.43233 180.266 6.37178 180.367 6.36381C181.121 6.31296 181.444 6.56205 181.332 7.1139C181.288 7.34218 181.178 7.49536 181.007 7.57316ZM202.431 55.4995C202.494 55.4732 202.564 55.4669 202.633 55.4886C202.973 55.5845 203.269 55.7234 203.521 55.9128C203.741 56.0711 203.928 56.2665 204.085 56.4993C204.24 56.7067 204.38 56.9225 204.504 57.1468C204.658 57.4177 204.789 57.7026 204.9 57.9962C204.956 58.1505 205.007 58.3103 205.052 58.4703C205.205 58.9774 205.024 59.2968 204.511 59.4261C204.349 59.5033 204.185 59.4792 204.021 59.3535C203.804 59.185 203.604 59.0079 203.422 58.8223C203.207 58.6105 203.018 58.3846 202.848 58.1475C202.653 57.8738 202.485 57.5833 202.342 57.2762C202.268 57.1101 202.211 56.9456 202.184 56.7847C202.14 56.5789 202.136 56.376 202.168 56.1788C202.065 56.093 202.103 55.9056 202.283 55.6217C202.292 55.6085 202.302 55.5953 202.317 55.5818C202.346 55.5447 202.385 55.5172 202.431 55.502L202.431 55.4995ZM202.416 10.9565C202.394 11.1226 202.323 11.2686 202.218 11.3809C202.186 11.4131 202.154 11.4427 202.12 11.47C201.958 11.5929 201.75 11.655 201.533 11.6261C201.48 11.6187 201.431 11.6087 201.38 11.5911C201.357 11.5848 201.333 11.5734 201.309 11.5645C201.247 11.5374 201.191 11.5023 201.139 11.4645L201.098 11.4286C201.066 11.4 201.035 11.3661 201.007 11.332C200.982 11.3004 200.959 11.2686 200.942 11.234C200.904 11.17 200.877 11.1005 200.862 11.0327C200.859 11.0176 200.855 11.0051 200.852 10.9901C200.848 10.9599 200.843 10.9296 200.841 10.8993C200.84 10.8714 200.838 10.8436 200.841 10.813C200.841 10.8079 200.841 10.8028 200.843 10.8002C200.842 10.7875 200.842 10.7723 200.846 10.7569C200.848 10.7441 200.849 10.7288 200.854 10.7158C200.857 10.6902 200.864 10.6645 200.872 10.6387C200.872 10.6311 200.874 10.6233 200.879 10.6155C200.885 10.5897 200.897 10.5663 200.908 10.5403C200.935 10.4753 200.976 10.4148 201.024 10.3614C201.036 10.3404 201.051 10.3244 201.068 10.3108C201.09 10.2868 201.117 10.265 201.144 10.2432C201.15 10.2429 201.154 10.235 201.16 10.2348C201.182 10.2183 201.204 10.2044 201.227 10.1905C201.294 10.1488 201.371 10.1218 201.447 10.105C201.463 10.0991 201.478 10.0983 201.493 10.0949C201.522 10.0934 201.55 10.0868 201.578 10.0852C201.63 10.0824 201.679 10.0798 201.729 10.0898C201.896 10.1112 202.046 10.1819 202.163 10.2847C202.196 10.3159 202.226 10.3473 202.254 10.3813C202.38 10.5395 202.445 10.7442 202.416 10.9565Z" fill="white"/>
<path d="M189.121 8.8478C189.118 8.87592 189.106 8.89939 189.092 8.92047L187.347 11.4622C186.941 12.0452 186.532 12.6258 186.119 13.2041C185.801 13.795 185.396 14.3374 184.916 14.8127C184.88 14.8502 184.854 14.8973 184.839 14.9489C184.796 15.0985 184.708 15.2352 184.588 15.3382C184.543 15.3762 184.527 15.3669 184.532 15.3108C184.592 14.7972 184.621 14.4249 184.621 14.199C184.619 14.0316 184.667 13.8944 184.765 13.7876C184.877 13.3245 184.95 12.8559 184.984 12.3794C185.047 11.4721 185.18 10.5738 185.378 9.68719C185.532 8.48814 185.865 7.32011 186.366 6.21654C186.385 6.17747 186.424 6.1474 186.468 6.13997C186.514 6.13492 186.562 6.15013 186.592 6.18402L188.904 8.54979C189.011 8.60495 189.08 8.67991 189.114 8.77455C189.123 8.79944 189.125 8.82475 189.121 8.8478Z" fill="#DB0E26"/>
<path d="M152.988 27.3928C158.868 38.2173 159.932 39.5666 155.028 51.3985C151.909 60.2939 154.667 59.0179 145.198 59.4556C144.629 59.3944 143.459 60.1869 143.258 59.4167C143.355 58.057 143.689 56.7196 144.057 55.4082C145.914 45.7609 149 36.4055 152.988 27.3926V27.3928Z" fill="white"/>
<path d="M167.692 7.28116C167.837 6.78023 166.955 5.55357 167.881 5.63424C171.477 5.80619 170.174 9.8551 169.273 11.9749C167.484 16.4165 165.702 20.8718 163.99 25.3377C162.107 22.1991 160.592 18.7694 158.82 15.537C158.651 13.3105 160.404 11.1129 161.41 9.15263C162.272 8.09666 164.504 4.20731 166.046 5.76295C167.149 8.58975 163.468 11.4145 162.65 14.0519C163.54 14.8512 168.25 8.49037 167.692 7.28141V7.28116Z" fill="white"/>
<path d="M118.315 22.8659C119.881 23.4333 122.446 23.5962 122.844 21.576C125.384 25.1478 127.058 30.2964 129.306 34.3873C129.788 35.4703 130.023 33.5892 130.224 33.1943C132.932 25.5779 134.678 17.6262 137.77 10.1816C140.086 5.21172 144.116 2.67925 149.754 2.99509C150.191 3.10281 150.857 2.80164 151.05 3.33848C151.684 4.79651 152.397 6.22117 153.088 7.65417C159.694 21.644 167.435 35.419 173.568 49.4749C171.625 50.0678 169.047 52.1864 167.11 50.8732C165.184 48.4942 164.165 45.5291 162.784 42.8369C158.884 33.9895 154.124 25.545 149.97 16.814C149.809 16.3273 149.352 15.9012 149.218 16.6661C145.191 29.622 141.105 42.5519 138.199 55.8031C137.763 56.9008 137.958 58.4701 137.136 59.3041C136.645 59.5501 135.895 60.0928 135.479 59.4672C133.638 56.031 131.812 52.5859 129.982 49.1439C125.078 40.0583 120.575 30.7738 116.094 21.4913C115.969 21.3307 116.086 21.0774 116.323 21.1861C118.137 21.6585 120.12 21.1689 121.3 19.7154C122.091 18.4895 122.053 19.3053 122.457 20.1746C121.986 21.838 120.064 22.8206 118.315 22.8662L118.315 22.8659ZM124.236 34.1251C124.347 34.9861 125.27 37.0477 126.361 35.9584C127.046 34.8278 124.618 31.7539 124.236 34.1251ZM164.26 37.0389C164.148 38.1204 166.101 40.449 166.464 38.3914C166.583 37.2887 164.605 34.9203 164.26 37.0389ZM166.365 40.9795C166.407 42.0307 168.24 41.3988 167.621 40.516C167.162 39.9577 166.26 40.249 166.365 40.9795Z" fill="#DB0E26"/>
<path d="M124.234 34.1255C124.616 31.7541 127.044 34.8287 126.359 35.9587C125.267 37.0476 124.346 34.9872 124.234 34.1255Z" fill="#282021"/>
<path d="M164.259 37.0389C164.604 34.9203 166.581 37.2887 166.462 38.3917C166.1 40.4493 164.146 38.1201 164.259 37.0389Z" fill="#282021"/>
<path d="M166.364 40.9799C166.259 40.2496 167.161 39.9578 167.62 40.5167C168.239 41.3997 166.406 42.0311 166.364 40.9799Z" fill="#282021"/>
<path d="M108.73 23.1249C109.092 20.5391 106.96 20.4298 106.95 19.654C111.733 17.5775 112.177 25.0151 113.8 27.7827C116.938 36.3572 122.436 43.8532 125.866 52.2994C126.025 52.8815 126.941 54.0174 126.473 54.4288C125.326 55.058 124.177 55.6825 123.032 56.314C120.757 57.2475 120.536 59.3914 118.885 56.3129C113.493 48.7537 110.38 40.1555 107.058 31.623C106.05 29.5978 101.871 20.8875 105.709 20.3469C108.068 20.2748 107.088 27.217 108.388 25.867C108.658 25.0007 108.671 23.9437 108.73 23.1251V23.1249Z" fill="white"/>
<path d="M114.392 60.5087C108.833 56.6401 102.223 53.3922 97.3671 48.8897C95.7152 42.1386 93.0096 35.691 90.9071 29.0697C90.3395 28.3167 90.4719 29.7671 90.4407 30.1027C90.3393 36.4873 89.8096 42.8661 89.8892 49.2521C89.551 50.3831 91.0926 57.0244 89.7563 56.4959C84.2006 55.5479 83.1488 49.4043 82.6096 44.8226C82.416 30.6552 82.0677 15.9274 82.3083 1.99673C85.8246 1.90621 89.9332 1.16455 93.1336 2.49311C92.239 6.43986 91.5452 10.4286 91.1251 14.4502C91.2112 15.0695 90.4358 16.1697 90.892 16.5654C93.1974 14.7041 95.4257 12.7502 97.7037 10.8562C99.9398 9.19232 101.925 6.86139 104.306 5.54522C105.214 5.68101 106.114 5.85169 107.03 5.93034C110.478 6.59715 114.314 6.90817 117.54 8.00208C111.234 12.2055 104.917 16.6721 98.6821 21.0642C101.971 31.9529 109.012 43.6162 113.528 54.7537C114.356 56.8669 115.441 58.8565 116.408 60.908C116.38 61.5864 113.583 60.1925 113.528 59.7748C94.1695 16.9461 113.66 57.9412 114.393 60.5079L114.392 60.5087ZM111.503 56.7195C111.266 55.4132 110.67 53.8269 109.26 53.369C107.297 53.631 110.624 59.234 111.503 56.7195ZM85.2762 52.7525C86.2127 51.9362 85.7554 50.4949 85.7086 49.4177C84.0812 46.6693 84.1082 52.1395 85.2762 52.7525ZM111.664 8.85424C111.701 7.82178 110.042 7.85744 110.085 8.86461C110.083 9.83688 111.69 9.85433 111.664 8.85424ZM89.4852 3.95873C89.4397 4.74768 90.8897 4.66195 90.8338 3.88211C90.9022 2.96673 89.3122 3.00972 89.4852 3.95873ZM88.1952 4.24245C89.0716 4.2872 89.1174 2.94119 88.2439 2.9245C87.3597 2.89643 87.3136 4.21084 88.1952 4.24245Z" fill="white"/>
<path d="M95.6407 48.0838C92.6549 48.2732 91.3693 46.7982 92.1942 43.9716C92.2264 35.2062 95.3176 45.35 95.6407 48.0838Z" fill="#DB0E26"/>
<path d="M111.501 56.7196C110.623 59.2339 107.295 53.6314 109.258 53.3691C110.668 53.8273 111.264 55.4131 111.501 56.7196Z" fill="#282021"/>
<path d="M85.279 52.7526C84.111 52.1386 84.084 46.6701 85.7116 49.4175C85.7585 50.4947 86.2155 51.9361 85.279 52.7526Z" fill="#282021"/>
<path d="M111.662 8.85343C111.688 9.85352 110.081 9.83607 110.083 8.8638C110.04 7.85688 111.699 7.82097 111.662 8.85343Z" fill="#282021"/>
<path d="M89.4858 3.95888C89.3128 3.00987 90.903 2.96688 90.8346 3.88226C90.8903 4.6621 89.4406 4.74782 89.4858 3.95888Z" fill="#282021"/>
<path d="M88.1969 4.24222C87.3153 4.21061 87.3614 2.89596 88.2456 2.92428C89.1191 2.94097 89.0733 4.28698 88.1969 4.24222Z" fill="#282021"/>
<path d="M70.1554 30.1932C75.5746 31.4198 78.6327 36.3419 78.8838 41.5014C79.1233 45.3849 79.4339 50.3796 76.1971 53.1955C70.465 55.6521 69.5191 47.2999 69.0647 43.5519C68.3618 39.3121 68.3873 35.7666 62.9148 35.5542C61.4086 37.1154 64.6249 56.1351 61.6409 55.7254C60.939 55.5702 61.1154 54.5407 60.7697 54.0714C60.2408 53.615 59.564 53.6228 59.3983 54.368C58.0344 56.7101 56.2186 54.1812 56.2956 52.4161C55.0222 40.3321 54.0777 28.2241 53.759 16.0849C53.8938 14.8767 52.8613 10.5492 53.6859 10.116C62.2879 7.26138 71.0682 4.84195 79.1275 0.734375C78.7846 8.95787 81.072 27.5239 70.1557 30.1929L70.1554 30.1932ZM62.2371 22.6924C62.4372 23.127 61.6638 25.9511 62.9431 25.3386C66.4287 24.8726 70.0467 22.5563 69.369 18.7221C69.2512 15.1397 64.581 15.5183 62.0025 16.1042C61.785 16.1573 61.76 16.1954 61.7811 16.4263C62.0014 18.5749 62.144 20.2967 62.2374 22.6924H62.2371ZM73.6777 51.9997C75.0421 51.9964 75.0015 50.0893 73.739 50.1188C72.4972 50.1049 72.3827 52.0037 73.6777 51.9997ZM74.3072 6.24739C75.5876 6.25978 75.6001 4.30967 74.3002 4.34102C73.1119 4.35316 72.9618 6.16849 74.3072 6.24739Z" fill="white"/>
<path d="M80.6509 27.6478C80.5097 28.6476 80.9392 30.0134 80.4751 30.8392C79.6923 30.9275 73.1959 31.792 74.9126 30.1289C79.3354 28.0289 78.8945 22.5154 80.4514 18.7031C80.6101 21.5934 80.5248 24.6898 80.6507 27.6478H80.6509Z" fill="#DB0E26"/>
<path d="M73.6757 51.9983C72.3807 52.0021 72.4952 50.1034 73.7371 50.1175C74.9995 50.0882 75.0401 51.9951 73.6757 51.9983Z" fill="#282021"/>
<path d="M74.3099 6.24658C72.9645 6.16768 73.1146 4.35235 74.3029 4.34021C75.6028 4.30911 75.5903 6.25897 74.3099 6.24658Z" fill="#282021"/>
<path d="M52.0412 52.4315C52.2119 53.5922 50.6006 53.9161 50.2346 53.0389C49.9765 52.1716 49.5135 50.5143 50.9492 50.4743C51.9988 50.4179 51.9294 51.8034 52.0415 52.4315H52.0412Z" fill="#282021"/>
<path d="M45.9533 56.8791C43.5532 47.9436 43.4713 38.5298 43.5793 29.3282C43.5277 22.3127 42.303 15.0721 44.3199 8.21156C44.6989 6.8084 46.4746 3.9773 47.4555 6.60636C47.8767 8.34305 47.1252 10.0709 46.871 11.7826C46.1905 15.9313 48.2745 11.472 48.6397 10.1435C49.0988 8.80049 49.1722 7.27721 48.3247 6.06118C48.2375 5.86976 47.8793 5.54963 48.2274 5.45328C54.0869 5.26287 50.6844 18.0081 51.3735 21.7933C51.5582 32.9225 53.447 43.9938 53.1897 55.1384C52.6934 56.0626 50.9676 55.5921 50.0239 55.8075C48.5442 55.7319 47.3429 56.6334 45.953 56.8789L45.9533 56.8791ZM52.0399 52.4312C51.9281 51.8036 51.9973 50.4174 50.9476 50.4743C49.5117 50.5145 49.9755 52.1708 50.2333 53.0389C50.5993 53.9158 52.2103 53.5921 52.0399 52.4315V52.4312Z" fill="white"/>
<path d="M1.99953 57.0437C7.20045 45.79 13.2054 34.9426 18.8196 23.8865C19.2516 23.2628 18.1815 23.4995 17.8178 23.544C7.49851 25.9231 9.35543 24.1136 2.04415 17.9906C1.65101 17.5807 1.15638 17.2413 0.753906 16.8683C3.81473 16.0688 7.27161 15.6725 10.429 14.8393C19.5301 13.0212 28.1654 9.74257 36.9367 6.875C39.262 9.65979 32.9945 21.5151 31.4558 25.1727C27.2838 32.8575 24.0844 41.0732 19.5348 48.5331C19.1579 48.879 19.5339 49.1319 19.9331 49.0587C25.5599 48.6641 31.2003 48.9326 36.834 48.97C37.5054 49.1608 38.9423 48.5397 39.1754 49.2731C39.206 51.5742 39.8852 53.7807 40.2215 56.0413C40.3352 56.5524 40.5689 57.173 39.7339 57.0502C27.1531 57.0097 14.5806 56.7832 1.99982 57.0431L1.99953 57.0437ZM28.546 16.0138C29.9118 16.1054 30.433 14.086 29.2897 13.6225C27.2981 12.5846 26.1137 15.9891 28.546 16.0138ZM33.4218 11.8816C33.3652 10.6447 31.3377 10.7351 31.0717 11.8529C30.6307 13.6798 33.5629 13.5678 33.4218 11.8816Z" fill="white"/>
<path d="M32.6249 46.8402C25.5213 47.4177 29.2409 44.5643 30.7869 40.69C34.0822 33.373 36.2917 25.6556 38.6173 18.0103C39.1983 16.3677 38.9361 19.3836 38.9594 19.8888C38.7002 28.6207 37.7141 37.3323 37.9518 46.0762C37.9562 46.7623 38.0017 46.7322 37.3006 46.7294C35.6685 46.7228 34.0408 46.8833 32.6246 46.8405L32.6249 46.8402Z" fill="#DB0E26"/>
<path d="M14.3002 25.9616C16.5112 25.4635 12.4684 30.3144 12.2741 31.2973C11.5132 32.334 11.1737 34.3182 10.2072 34.903C10.2142 32.1993 8.61455 29.7576 8.62505 27.0629C8.63118 26.8486 8.70292 26.7922 8.88724 26.7599C10.7479 26.4753 12.3529 25.9927 14.3002 25.9616Z" fill="#DB0E26"/>
<path d="M28.5463 16.014C26.1131 15.9891 27.2992 12.5843 29.2903 13.6227C30.4324 14.0865 29.9127 16.1059 28.5463 16.014Z" fill="#282021"/>
<path d="M33.4226 11.8818C33.5638 13.568 30.6318 13.68 31.0725 11.8531C31.3388 10.7359 33.366 10.6446 33.4226 11.8818Z" fill="#282021"/>
<path d="M230.723 0.960263C234.381 1.81361 234.896 2.85007 237.737 3.03317C240.5 3.21123 242.328 2.3814 242.698 3.03317C243.144 3.82101 240.804 5.61338 241.074 5.90399C241.293 6.13917 242.802 4.89778 244.751 4.24768C246.828 3.55391 250.198 3.26834 251.594 4.46942C253.97 6.51209 249.267 11.6742 247.488 21.2106C246.873 24.5131 247.526 23.4111 246.462 39.865C246.134 44.9364 245.169 48.3599 242.332 50.7587C239.845 52.8602 236.377 53.4767 236.467 53.7522C236.564 54.0495 240.324 52.4587 241.587 53.7589C242.468 54.666 241.928 56.4416 240.645 59.3174C237.689 65.9444 240.953 71.0124 238.421 74.3048C237.967 74.8961 237.049 75.8032 236.711 77.3336C236.498 78.2944 236.659 78.8404 236.197 79.4854C235.824 80.0062 235.211 80.3606 233.64 80.7167C230.943 81.3265 228.959 80.8814 226.629 80.6176C225.615 80.5034 225.394 79.4182 224.891 78.5884C223.177 75.7562 223.054 72.9559 223.026 72.3915C222.759 66.9489 221.145 63.596 220.365 57.7737C220.104 55.8217 220.021 54.0142 219.947 50.3875C219.809 43.5069 219.705 34.54 223.438 32.2302C223.816 31.9951 225.017 31.345 224.92 30.6865C224.825 30.0431 223.557 29.818 222.907 29.5543C220.066 28.4002 220.168 22.8904 219.605 18.6589C218.337 9.12422 213.766 6.8279 215.841 3.6715C217.808 0.681411 223.522 0.395841 224.869 0.330328C227.412 0.204341 229.653 0.711649 230.723 0.961943V0.960263Z" fill="white"/>
<path d="M231.473 0.649716C235.131 1.50307 235.646 2.53952 238.487 2.72262C241.25 2.90068 243.078 2.07085 243.448 2.72262C243.894 3.51046 241.554 5.30284 241.824 5.59345C242.043 5.82862 243.552 4.58723 245.501 3.93714C247.578 3.24337 250.948 2.9578 252.344 4.15887C254.72 6.20154 250.017 11.3636 248.238 20.9C247.623 24.2026 248.276 23.1006 247.212 39.5545C246.884 44.6259 245.919 48.0494 243.082 50.4482C240.595 52.5496 237.127 53.1661 237.217 53.4416C237.314 53.739 241.074 52.1482 242.337 53.4483C243.218 54.3555 242.678 56.131 241.395 59.0069C238.439 65.6338 241.703 70.7018 239.171 73.9943C238.717 74.5856 237.799 75.4927 237.461 77.023C237.248 77.9839 237.409 78.5298 236.947 79.1749C236.574 79.6956 235.961 80.0501 234.39 80.4062C231.693 81.016 229.709 80.5708 227.379 80.3071C226.365 80.1929 226.144 79.1077 225.641 78.2779C223.927 75.4457 223.804 72.6454 223.776 72.081C223.509 66.6383 221.895 63.2854 221.115 57.4631C220.854 55.5112 220.771 53.7037 220.697 50.0769C220.559 43.1964 220.455 34.2294 224.188 31.9197C224.566 31.6845 225.767 31.0344 225.67 30.3759C225.575 29.7326 224.307 29.5075 223.657 29.2437C220.816 28.0897 220.918 22.5799 220.355 18.3484C219.087 8.81367 214.516 6.51735 216.591 3.36096C218.558 0.370865 224.272 0.0852945 225.619 0.0197813C228.162 -0.106206 230.403 0.401102 231.473 0.651396V0.649716Z" fill="#DB0E26"/>
<path d="M229.632 76.7117C226.894 80.7094 223.759 69.4157 227.316 69.8437C229.561 71.2809 229.844 74.3213 229.632 76.7117Z" fill="#282021"/>
<path d="M235.082 85.9998C234.638 85.9847 234.305 85.9226 233.69 85.9662C232.987 86.0166 232.487 86.1627 232.342 86.1996C230.858 86.5842 229.14 85.3348 227.229 85.1451C224.5 84.873 221.801 86.8142 221.943 87.6035C222.067 88.292 224.395 88.3474 224.388 88.8646C224.383 89.3079 222.675 89.3667 222.578 89.9763C222.521 90.344 223.048 90.7991 225.3 91.9292C226.275 92.4196 227.242 92.9233 228.216 93.4187C231.402 95.0392 232.102 95.5312 232.091 96.1357C232.083 96.6395 231.585 97.1399 231.475 97.2457C230.908 97.7898 230.221 97.8217 230.218 98.087C230.218 98.1844 230.309 98.3053 230.846 98.5354C231.66 98.8847 232.402 99.0207 233.246 99.1198C234.478 99.2642 234.656 99.1836 234.745 99.1315C235.246 98.8511 235.364 98.2432 235.505 97.5194C235.657 96.7386 235.854 95.7226 235.519 94.5824C235.434 94.2936 235.317 94.0065 235.46 93.7327C235.635 93.3986 236.07 93.3163 236.583 93.1954C237.546 92.967 238.36 92.7 238.572 92.6177C239.753 92.166 240.86 90.3877 240.48 88.5774C240.325 87.8386 240.23 87.6236 240.102 87.5531C239.701 87.3298 239.121 87.7193 238.995 87.5464C238.871 87.3768 239.441 87.0124 239.38 86.5993C239.306 86.0854 238.294 85.7059 237.441 85.6522C236.46 85.5917 236.37 86.0451 235.079 85.9998H235.082Z" fill="white"/>
<path d="M235.754 85.6365C235.31 85.6214 234.977 85.5593 234.362 85.6029C233.659 85.6533 233.159 85.7994 233.014 85.8363C231.53 86.2209 229.812 84.9715 227.9 84.7818C225.172 84.5097 222.473 86.451 222.615 87.2402C222.739 87.9287 225.067 87.9841 225.06 88.5013C225.055 88.9446 223.347 89.0034 223.25 89.613C223.193 89.9807 223.72 90.4358 225.972 91.5659C226.947 92.0563 227.914 92.5601 228.888 93.0554C232.074 94.6759 232.773 95.1679 232.763 95.7725C232.754 96.2762 232.257 96.7767 232.147 96.8824C231.58 97.4265 230.893 97.4584 230.89 97.7238C230.89 97.8211 230.981 97.9421 231.518 98.1721C232.331 98.5214 233.074 98.6574 233.918 98.7565C235.15 98.9009 235.327 98.8203 235.417 98.7682C235.918 98.4878 236.035 97.8799 236.177 97.1562C236.329 96.3753 236.526 95.3594 236.191 94.2192C236.106 93.9303 235.989 93.6432 236.132 93.3695C236.307 93.0353 236.742 92.953 237.255 92.8321C238.218 92.6037 239.031 92.3367 239.244 92.2544C240.425 91.8027 241.532 90.0244 241.152 88.2142C240.997 87.4753 240.902 87.2603 240.774 87.1898C240.373 86.9665 239.793 87.3561 239.667 87.1831C239.543 87.0135 240.112 86.6491 240.052 86.236C239.978 85.7222 238.966 85.3427 238.113 85.2889C237.132 85.2285 237.042 85.6819 235.751 85.6365H235.754Z" fill="#DB0E26"/>
<path d="M224.921 14.9866C223.441 18.9996 223.052 8.33291 223.146 7.5995C224.337 7.01485 224.638 12.5686 224.921 14.9866Z" fill="#282021"/>
<path d="M208.687 96.8311C208.687 96.8311 208.686 96.8346 208.684 96.8364C208.551 96.8295 208.415 96.8228 208.282 96.8159L208.278 96.8161C208.002 96.801 207.728 96.7894 207.451 96.776C205.625 96.6907 203.799 96.6257 201.972 96.5794C201.5 96.5668 201.027 96.5558 200.553 96.5483L200.55 96.5485C200.51 96.5466 200.472 96.5463 200.433 96.5461C200.314 96.5438 200.194 96.5399 200.074 96.5393C200.058 96.5382 200.045 96.5387 200.028 96.5377C199.735 96.5182 199.442 96.5089 199.148 96.5082C198.901 96.5091 198.644 96.5171 198.397 96.5333C198.39 96.5336 198.384 96.5304 198.379 96.5306C198.362 96.5313 198.346 96.5319 198.329 96.5325C198.081 96.5232 197.835 96.5156 197.587 96.5063C197.335 96.4989 197.082 96.4881 196.831 96.4789C196.808 96.4798 196.784 96.4773 196.761 96.4764C196.59 96.4693 196.42 96.4639 196.25 96.4567C196.011 96.4488 195.771 96.4392 195.532 96.4296C195.332 96.4219 195.732 96.439 195.532 96.4296C194.172 96.3758 192.214 96.2954 190.856 96.2297C190.6 96.2513 190.343 96.2577 190.085 96.2522C190.062 96.2531 190.04 96.2437 190.02 96.2291C190.002 96.2162 189.99 96.1979 189.986 96.176L189.914 95.7687L189.543 93.4671C189.521 93.1906 189.482 92.9164 189.427 92.6446C189.343 92.2326 189.33 91.8095 189.389 91.3955C189.397 90.786 189.428 90.174 189.483 89.5679C189.503 89.3289 189.555 89.1517 189.633 89.0398C189.633 89.0364 189.633 89.0347 189.633 89.033C189.815 87.8453 190.699 85.6151 190.7 85.6066C191.178 84.4314 198.195 72.7121 198.195 72.7121C198.213 72.6807 198.214 72.6433 198.197 72.6099C198.179 72.5782 198.147 72.5573 198.111 72.557L192.898 72.3299C192.831 72.3205 192.762 72.3095 192.773 72.241C192.782 72.1726 192.752 72.1159 192.77 72.0795C192.857 71.889 192.926 71.6924 192.973 71.4865C193.016 71.2977 193.028 71.0897 193.011 70.8623C192.957 70.2042 192.804 69.5583 192.555 68.9502C192.471 68.739 192.451 68.7449 192.498 68.9677C192.69 69.8655 192.669 70.7409 192.434 71.592C192.385 71.776 192.324 71.9604 192.253 72.1417C192.25 72.1537 192.244 72.1659 192.239 72.178C192.244 72.1778 192.251 72.1775 192.259 72.1772L192.258 72.3661L191.689 72.4116C191.672 72.4122 191.657 72.4043 191.648 72.391C191.639 72.3777 191.635 72.3609 191.641 72.3453C191.787 71.9552 191.893 71.5616 191.96 71.1677C192.009 70.8851 192.037 70.6016 192.047 70.3188C192.052 70.1552 192.049 69.9886 192.039 69.8239C192.03 69.6354 192.011 69.4456 191.982 69.2561C191.929 68.8974 191.845 68.5399 191.728 68.1802C191.706 68.1181 191.68 68.0562 191.655 67.9925C191.57 67.7847 191.653 67.722 191.897 67.8097C192.005 67.8039 197.01 67.9522 199.406 68.118C201.467 68.2591 208.32 68.7352 208.504 68.7606C208.573 68.8379 208.55 68.9715 208.435 69.1614C208.364 69.21 208.306 69.2785 208.271 69.3581C207.773 69.9692 207.318 70.6126 206.906 71.2851C206.867 71.3512 206.786 71.4479 206.661 71.5751C206.57 71.6705 206.498 71.7821 206.45 71.9064C205.635 73.0553 204.835 74.2138 204.05 75.387C203.476 76.2425 202.901 77.0947 202.323 77.947C201.005 79.9011 199.745 81.8988 198.548 83.9334C198.48 84.0466 198.411 84.1632 198.346 84.278C198.235 84.4676 198.124 84.6556 198.014 84.8453C197.799 85.2141 197.58 85.5814 197.364 85.9504C196.694 87.0869 196.016 88.2169 195.332 89.3421C195.195 89.5668 195.059 89.7881 194.92 90.0128C194.92 90.0128 194.918 90.0163 194.918 90.018L194.918 90.0214C194.725 90.3367 194.533 90.652 194.337 90.9674C194.242 91.1241 194.145 91.2827 194.048 91.4378C194.029 91.4691 194.026 91.5084 194.044 91.54C194.06 91.5734 194.092 91.5943 194.127 91.5964C194.179 91.5979 194.23 91.601 194.282 91.6041C194.432 91.6121 194.581 91.6183 194.729 91.6263C194.833 91.6308 194.934 91.6372 195.037 91.6435C195.355 91.6603 195.671 91.6789 195.989 91.7009C196.204 91.7148 196.42 91.7287 196.635 91.7443C196.792 91.7554 196.948 91.7648 197.105 91.7792C197.32 91.7949 197.536 91.8105 197.751 91.8261C197.964 91.8435 198.177 91.861 198.391 91.8801C198.586 91.8965 198.779 91.9113 198.972 91.9311C199.11 91.9429 199.249 91.9546 199.387 91.9698C199.524 91.9816 199.657 91.9953 199.794 92.0071L199.799 92.0069C200.477 92.073 201.159 92.1117 201.843 92.1265C201.896 92.1347 201.948 92.1447 202 92.1563L203.06 92.1466C203.742 92.1717 204.423 92.2071 205.102 92.2544C205.482 92.2791 205.861 92.3089 206.24 92.3422C206.433 92.3603 206.494 92.4907 206.422 92.7351L206.417 92.771L206.412 92.8529C206.415 92.8391 206.416 92.8272 206.417 92.8135C206.522 93.2587 206.667 93.6922 206.852 94.1088C206.854 94.1155 206.856 94.1206 206.86 94.1255C206.883 94.1791 206.908 94.2326 206.934 94.2861C206.999 94.4265 207.071 94.5667 207.148 94.705C207.148 94.7084 207.149 94.7117 207.151 94.7134C207.158 94.725 207.165 94.7401 207.173 94.7517C207.244 94.8817 207.32 95.0098 207.403 95.136C207.717 95.6208 208.108 96.0705 208.576 96.4883L208.579 96.4881C208.605 96.5127 208.631 96.5338 208.657 96.5567C208.7 96.5942 208.725 96.6357 208.728 96.6816C208.731 96.7223 208.718 96.7687 208.69 96.8174L208.688 96.8175L208.687 96.8311Z" fill="white"/>
<path d="M192.468 96.3741C192.452 96.4993 192.377 96.5399 192.24 96.498C192.374 95.9718 192.34 95.4635 192.139 94.9709C192.135 94.9654 192.1 94.8422 192.028 94.5976C191.977 94.424 191.863 94.3 191.682 94.2238C191.852 94.1079 191.989 94.1536 192.096 94.3628C192.427 95.0203 192.552 95.6913 192.468 96.3741Z" fill="#282021"/>
<path d="M192.137 94.9721C192.137 94.9721 192.097 94.8434 192.026 94.5989C191.975 94.4253 191.86 94.3013 191.679 94.2251C191.665 94.2389 191.651 94.2545 191.637 94.2702C191.597 94.317 191.566 94.371 191.544 94.4285C191.523 94.4859 191.51 94.5487 191.507 94.6168C191.503 94.6584 191.505 94.7037 191.511 94.7488C191.564 95.2866 191.689 95.816 191.879 96.3222C191.948 96.5064 192.068 96.566 192.238 96.4992C192.372 95.9731 192.338 95.4647 192.137 94.9721ZM192.161 96.4152C192.161 96.4152 192.154 96.425 192.151 96.4289C192.124 96.445 192.102 96.4421 192.086 96.4162C192.062 96.3775 192.039 96.35 192.017 96.3339C191.967 96.2924 191.949 96.2365 191.963 96.1642C191.969 96.1281 191.98 96.1277 191.992 96.165C192.019 96.2489 192.073 96.3186 192.144 96.3649C192.156 96.372 192.164 96.3849 192.164 96.3981C192.164 96.4038 192.165 96.4113 192.161 96.4152Z" fill="#282021"/>
<path d="M177.279 81.1785C177.011 77.4675 177.833 71.912 176.894 67.66C176.731 67.3863 176.415 66.8675 176.915 66.7819C180.876 66.7012 184.867 66.8799 188.824 67.1306C190.155 67.537 188.826 70.138 188.92 71.203C188.236 73.3016 184.765 72.0213 183.11 72.3985C182.138 72.9024 182.923 75.2613 182.626 76.2992C182.123 79.2261 185.612 78.0536 187.325 78.2539C188.346 78.0005 187.117 82.4392 187.212 83.2611C187.127 83.6523 186.911 83.8792 186.513 83.9356C180.688 83.664 183.007 83.1995 182.674 90.6363C182.656 91.0322 182.814 91.3273 183.23 91.3053C189.474 90.7569 186.899 91.0731 187.7 96.1984C187.605 97.3874 179.621 96.5603 178.137 96.8327C177.733 96.8249 177.715 96.8051 177.653 96.4091C177.136 91.0188 177.368 87.0312 177.279 81.1787L177.279 81.1785ZM188.35 70.9605C188.36 70.4822 187.639 70.4752 187.625 70.9454C187.588 71.4354 188.369 71.457 188.35 70.9605Z" fill="white"/>
<path d="M175.246 69.3731C175.211 68.8561 175.368 67.4642 176.008 68.0971C176.267 69.0198 175.952 70.044 175.963 70.9986C175.685 72.0467 175.156 69.6286 175.246 69.3729L175.246 69.3731Z" fill="#DB0E26"/>
<path d="M183.493 87.5251C183.637 86.7689 183.367 85.1195 184.544 85.2466C185.296 85.6252 183.981 86.7446 183.966 87.3643C183.851 87.8369 183.45 88.4503 183.493 87.5251Z" fill="#DB0E26"/>
<path d="M188.355 70.9488C188.375 71.4397 187.581 71.4183 187.619 70.9337C187.633 70.4689 188.365 70.476 188.355 70.9488Z" fill="#282021"/>
<path d="M158.618 98.4013C159.02 88.0798 158.488 77.3556 158.647 67.2114C162.569 67.2422 166.644 66.8538 170.472 67.8615C175.92 69.5387 174.017 76.9236 169.81 78.9698C169.336 79.1508 169.669 79.3917 170.001 79.4387C173.685 79.8347 176.72 83.6708 175.379 87.3978C174.219 90.2663 171.217 91.5502 168.664 92.8505C165.165 94.3926 161.887 96.4947 158.618 98.4015L158.618 98.4013ZM162.784 75.7088C162.791 77.5626 162.038 79.097 164.545 77.6624C169.372 75.5644 168.398 71.6012 163.085 72.1302C162.28 71.9858 162.986 75.0325 162.784 75.7088ZM163.888 89.7022C166.232 88.5887 168.701 86.276 168.159 83.3988C167.102 82.0387 164.921 83.147 163.474 83.1858C163.073 83.5661 163.501 84.8514 163.411 85.4639C163.512 86.8695 163.414 88.3701 163.888 89.7022L163.888 89.7022ZM161.317 71.5663C161.292 71.2059 161.205 70.7817 160.881 70.5783C159.274 70.2901 160.9 73.9539 161.317 71.5663ZM161.418 75.8408C161.255 74.9282 161.356 73.967 160.933 73.1484C160.521 72.8003 160.985 74.9692 160.914 75.2761C160.893 75.6737 161.164 76.7409 161.418 75.8408L161.418 75.8408ZM161.043 93.5157C161.083 92.9408 160.78 91.1543 160.403 92.4888C160.22 93.2126 160.785 95.4798 161.043 93.5157ZM171.253 89.3515C170.422 89.3998 170.543 90.6041 171.279 90.5767C172.023 90.5607 172.016 89.3645 171.253 89.3515Z" fill="white"/>
<path d="M161.318 71.5646C160.901 73.9525 159.277 70.2878 160.883 70.5766C161.207 70.78 161.294 71.2041 161.318 71.5646Z" fill="#282021"/>
<path d="M161.42 75.8412C160.894 77.3417 160.753 73.3543 160.786 73.0801C161.475 73.6469 161.194 74.9706 161.42 75.8412Z" fill="#282021"/>
<path d="M161.044 93.5166C160.785 95.4812 160.22 93.2125 160.404 92.4897C160.78 91.1555 161.084 92.9415 161.044 93.5166Z" fill="#282021"/>
<path d="M171.252 89.3512C172.015 89.3645 172.022 90.5604 171.278 90.5764C170.542 90.6038 170.421 89.3995 171.252 89.3512Z" fill="#282021"/>
<path d="M166.949 85.3831C166.754 86.6806 165.548 87.7669 164.374 88.164C163.639 87.8564 166.829 83.3708 166.949 85.3831Z" fill="#DB0E26"/>
</svg>
