<svg width="380" height="57" viewBox="0 0 380 57" fill="none" xmlns="http://www.w3.org/2000/svg">
<g clip-path="url(#clip0_137_358)">
<path d="M378.654 0L370.047 0.565289L361.44 0L368.739 38.5716H371.943L378.635 0H378.654Z" fill="#E30613"/>
<path d="M370.521 42.4909L363.886 41.756L361.99 46.8813L368.625 49.802V52.7227L365.782 51.9878V54.8519L373.365 57V49.0671L380 47.5974L379.052 41.756L370.521 42.4909Z" fill="#E30613"/>
<path d="M252.266 8.42282H268.872C281.005 8.42282 285.157 12.7755 285.157 19.6155C285.157 22.1028 283.564 26.399 279.147 27.0208C283.545 27.6427 286.294 32.2403 286.294 35.7828C286.294 42.8113 282.901 48.2192 268.74 48.2192H252.266V8.42282ZM268.607 23.8364C272.379 23.8364 273.005 22.3478 273.005 20.4823C273.005 18.6169 272.436 17.1848 268.721 17.1848H264.512V23.8364H268.607ZM268.986 39.7022C273.005 39.7022 273.839 37.9686 273.839 35.8582C273.839 33.7478 273.005 32.2403 269.176 32.2403H264.512V39.7022H268.986Z" fill="white" fill-opacity="1"/>
<path d="M287.545 8.42282H317.877V17.9385H299.735V23.6668H316.019V32.3157H299.735V38.7223H317.877V48.238H287.545V8.42282Z" fill="white" fill-opacity="1"/>
<path d="M321.649 38.3266L339.583 17.9197H321.649V8.40396H353.706V17.8631L335.128 38.7035H354.54V48.2192H321.668V38.3266H321.649Z" fill="white" fill-opacity="1"/>
<path d="M0 38.3266L17.5735 17.9197H0V8.40396H31.4123V17.8631L13.2133 38.7035H32.2275V48.2192H0V38.3266Z" fill="white" fill-opacity="1"/>
<path d="M34.8623 8.42282H46.8813V48.2192H34.8623V8.42282Z" fill="white" fill-opacity="1"/>
<path d="M51.0713 8.42282H66.7111C82.3509 8.42282 83.7348 16.6949 83.7348 22.4232C83.7348 27.7746 81.1756 32.5607 75.1661 33.6724L86.749 48.2192H71.7917L63.0902 33.484V48.2192H51.0713V8.42282ZM66.2751 26.7759C70.5974 26.7759 71.6021 25.0989 71.6021 22.4232C71.6021 19.5025 70.5405 17.9385 66.2751 17.9385H63.0902V26.7759H66.2751Z" fill="white" fill-opacity="1"/>
<path d="M88.4355 8.42282H100.455V23.9117L109.08 8.42282H124.72L110.388 27.4542L125.478 48.2192H109.895L100.455 30.8648V48.2192H88.4355V8.42282Z" fill="white" fill-opacity="1"/>
<path d="M128.341 8.42282H140.36V48.2192H128.341V8.42282Z" fill="white" fill-opacity="1"/>
<path d="M182.408 8.42282H168.645L156.815 30.4314V8.42282H144.683V48.2192H158.066L170.275 26.7005V48.2192H182.408V8.42282Z" fill="#E30613"/>
<path d="M186.729 8.42282H198.748V48.2192H186.729V8.42282Z" fill="white" fill-opacity="1"/>
<path d="M202.939 8.42282H214.958V23.9117L223.583 8.42282H239.223L224.891 27.4542L239.963 48.2192H224.38L214.939 30.8648V48.2192H202.92V8.42282H202.939Z" fill="white" fill-opacity="1"/>
</g>
<defs>
<clipPath id="clip0_137_358">
<rect width="380" height="57" fill="white"/>
</clipPath>
</defs>
</svg>
