<svg width="307" height="89" viewBox="0 0 307 89" fill="none" xmlns="http://www.w3.org/2000/svg">
<path d="M303.348 1.0207L303.373 0.835458L303.187 0.850485L292.731 1.69331L282.275 0.850485L282.086 0.835268L282.114 1.02252L291.005 59.5777L291.024 59.7051H291.153H295.042H295.173L295.191 59.5758L303.348 1.0207Z" fill="#E30613" stroke="white" stroke-width="0.3"/>
<path d="M292.896 65.801L292.821 65.808L283.793 64.7134L283.672 64.6987L283.633 64.8143L281.01 72.5862L280.968 72.7114L281.087 72.7691L290.159 77.1691V81.318L286.416 80.2616L286.225 80.2077V80.4059V84.736V84.8463L286.331 84.8792L296.799 88.1433L296.994 88.204V88.0001V76.0607L306.036 73.8679L306.169 73.8357L306.149 73.7003L304.838 64.8182L304.817 64.6774L304.675 64.6907L292.896 65.801Z" fill="#E30613" stroke="white" stroke-width="0.3"/>
<path d="M0.886089 46.7563L0.85 46.7984V46.8539V58.5116V58.6616H1H38.7833H38.9333V58.5116V47.298V47.148H38.7833H16.8202L37.9409 22.8374L37.9776 22.7951V22.7391V11.592V11.442H37.8276H1H0.85V11.592V22.8057V22.9557H1H21.277L0.886089 46.7563Z" fill="white" stroke="white" stroke-width="0.3"/>
<path d="M41.8721 11.4643H41.7221V11.6143V58.5117V58.6617H41.8721H55.963H56.113V58.5117V11.6143V11.4643H55.963H41.8721Z" fill="white" stroke="white" stroke-width="0.3"/>
<path d="M58.6523 11.4643H58.5023V11.6143V58.5117V58.6617H58.6523H72.7433H72.8933V58.5117V41.6986L82.8155 58.5876L82.859 58.6617H82.9448H100.481H100.791L100.598 58.4185L87.1717 41.4694C90.6048 40.7737 93.0731 39.0408 94.6894 36.6998C96.3415 34.3068 97.0969 31.2883 97.0969 28.1127C97.0969 24.7305 96.692 20.5601 93.9595 17.2368C91.2226 13.9083 86.181 11.4643 76.9884 11.4643H58.6523ZM82.5725 28.1127C82.5725 29.6755 82.2797 30.906 81.3964 31.7515C80.5105 32.5995 78.9976 33.0921 76.4772 33.0921H72.8933V22.9779H76.4772C78.9662 22.9779 80.4782 23.438 81.3717 24.2883C82.2624 25.1359 82.5725 26.4041 82.5725 28.1127Z" fill="white" stroke="white" stroke-width="0.3"/>
<path d="M102.459 11.4643H102.309V11.6143V58.5117V58.6617H102.459H116.55H116.7V58.5117V38.653L127.486 58.5831L127.529 58.6617H127.618H145.888H146.181L146.009 58.4238L128.382 34.0431L145.119 11.7042L145.298 11.4643H144.999H126.663H126.574L126.531 11.5416L116.7 29.2867V11.6143V11.4643H116.55H102.459Z" fill="white" stroke="white" stroke-width="0.3"/>
<path d="M149.244 11.4643H149.094V11.6143V58.5117V58.6617H149.244H163.335H163.485V58.5117V11.6143V11.4643H163.335H149.244Z" fill="white" stroke="white" stroke-width="0.3"/>
<path d="M210.558 11.6143V11.4643H210.408H194.273H194.183L194.14 11.5435L180.554 36.9513V11.6143V11.4643H180.404H166.18H166.03V11.6143V58.5117V58.6617H166.18H181.871H181.958L182.002 58.5854L196.034 33.7242V58.5117V58.6617H196.184H210.408H210.558V58.5117V11.6143Z" fill="#E30613" stroke="white" stroke-width="0.3"/>
<path d="M215.476 11.4643H215.326V11.6143V58.5117V58.6617H215.476H229.567H229.717V58.5117V11.6143V11.4643H229.567H215.476Z" fill="white" stroke="white" stroke-width="0.3"/>
<path d="M248.719 11.6143V11.4643H248.569H234.478H234.456H234.306V11.6143V58.5117V58.6617H234.456H248.547H248.697V58.5117V38.653L259.483 58.5831L259.526 58.6617H259.615H277.885H278.178L278.006 58.4238L260.402 34.0432L277.138 11.7042L277.318 11.4643H277.018H258.682H258.593L258.551 11.5416L248.719 29.2867V11.6143Z" fill="white" stroke="white" stroke-width="0.3"/>
<path d="M233.928 82.2266V82.3766H234.078H241.213C244.294 82.3766 246.238 81.7752 247.412 80.7491C248.591 79.7181 248.964 78.2849 248.964 76.6975C248.964 75.8752 248.658 74.9401 248.107 74.1756C247.673 73.5716 247.079 73.0664 246.354 72.8112C247.037 72.5658 247.531 72.0973 247.868 71.5651C248.296 70.8897 248.475 70.1065 248.475 69.5252C248.475 67.973 248.014 66.679 246.861 65.7792C245.717 64.8858 243.915 64.4013 241.279 64.4013H234.1H234.078H233.928V64.5513V82.2266ZM241.168 71.2405H239.562V68.5872H241.235C242.021 68.5872 242.432 68.7466 242.651 68.9674C242.868 69.1868 242.929 69.5006 242.929 69.9027C242.929 70.3005 242.859 70.6211 242.627 70.8475C242.394 71.076 241.964 71.2405 241.168 71.2405ZM243.285 76.7197C243.285 77.1693 243.193 77.5484 242.923 77.8182C242.653 78.0889 242.172 78.2795 241.324 78.2795H239.54V75.2709H241.413C242.232 75.2709 242.69 75.4357 242.945 75.6792C243.198 75.92 243.285 76.2683 243.285 76.7197Z" fill="white" stroke="white" stroke-width="0.3"/>
<path d="M250.042 64.5513V64.7013V82.2044V82.3544H250.192H263.328H263.478V82.2044V77.9854V77.8354H263.328H255.632V75.2931H262.528H262.678V75.1431V71.3016V71.1516H262.528H255.632V68.9202H263.328H263.478V68.7702V64.5513V64.4013H263.328H250.192V64.5291H250.042V64.5513Z" fill="white" stroke="white" stroke-width="0.3"/>
<path d="M264.013 77.7324L263.977 77.7745V77.83V82.2266V82.3766H264.127H278.351H278.501V82.2266V78.0076V77.8576H278.351H270.279L278.109 68.8464L278.146 68.8041V68.7481V64.5513V64.4013H277.996H264.127H263.977V64.5513V68.7703V68.9203H264.127H271.558L264.013 77.7324Z" fill="white" stroke="white" stroke-width="0.3"/>
</svg>
