<svg width="253" height="100" viewBox="0 0 253 100" fill="none" xmlns="http://www.w3.org/2000/svg">
<path d="M214.352 9.43158C213.986 9.28594 213.604 9.2006 213.209 9.17272C209.905 8.66784 206.595 8.22823 203.277 7.85657C202.986 7.87723 202.698 7.87079 202.407 7.83469L200.304 7.5965C200.264 7.59323 200.224 7.59804 200.187 7.6135C200.147 7.6264 200.11 7.64994 200.077 7.68143L187.199 20.0706C187.043 20.2221 186.965 20.1883 186.973 19.9744L186.991 19.4463C187.137 18.9494 187.23 18.3498 187.266 17.6506C187.482 13.3683 187.959 9.10485 188.694 4.88456C188.693 4.87108 188.695 4.86016 188.692 4.84952C188.685 4.81206 188.657 4.78652 188.621 4.78027C187.234 4.56123 185.882 4.43767 184.569 4.40393C184.556 4.40463 184.54 4.40548 184.523 4.40094C184.537 4.40023 184.548 4.40236 184.561 4.40166C184.224 4.3464 183.883 4.33456 183.54 4.36073C182.132 4.47253 180.728 4.63825 179.331 4.85489L177.299 5.02658C177.275 5.02785 177.251 5.03991 177.233 5.05707C177.215 5.07693 177.206 5.10175 177.202 5.1263C177.192 5.20248 178.747 28.4159 178.764 28.4393C178.778 28.4521 178.785 28.4706 178.789 28.4894C178.789 28.4894 179.568 42.2611 179.526 42.6391C179.524 45.7315 179.792 48.8151 180.325 51.8605C180.474 52.696 180.63 53.4149 180.799 54.0115C181.021 54.7973 181.322 56.006 181.418 56.2928L183.223 59.9796C183.306 60.1212 183.41 60.2617 183.544 60.4033C183.645 60.5143 183.761 60.6244 183.891 60.7338C185.138 61.7819 186.537 62.4301 188.087 62.6784C188.246 62.7782 188.461 62.7615 188.732 62.6337C188.798 62.6033 188.835 62.5337 188.823 62.4614C188.639 61.3222 188.476 60.1793 188.335 59.0352C188.026 56.5484 187.824 54.0478 187.724 51.5419C187.719 51.4341 187.598 44.2773 187.598 44.2773L187.509 37.6757C187.482 36.2904 187.398 33.2593 187.398 33.2593C187.566 33.0234 187.81 33.3106 187.861 33.4079C187.861 33.4079 191.267 42.3491 192.774 45.8812C193.734 48.3257 194.622 50.7983 195.433 53.2939C195.453 53.3604 195.566 53.8762 195.71 54.3119C195.809 54.604 195.92 54.8631 196.023 54.9226C196.24 55.0544 197.174 55.619 198.511 56.4245C198.937 56.6832 199.405 56.9668 199.906 57.2675C201.497 58.23 203.405 59.3785 205.29 60.5148C206.001 60.9424 206.708 61.3674 207.393 61.7801C207.686 61.9567 207.975 62.1307 208.26 62.3022C208.705 62.5681 209.137 62.8292 209.552 63.0777C210.064 63.3859 210.552 63.6793 211 63.9477C211.184 64.0569 211.359 64.1639 211.529 64.2631C212.98 65.133 213.924 65.697 213.943 65.696C213.956 65.6845 213.963 65.6652 213.959 65.6384C213.957 65.606 213.944 65.5742 213.93 65.548L213.614 64.978C213.468 64.7154 213.208 64.2317 212.852 63.5692C212.768 63.4114 212.678 63.2459 212.583 63.0698C212.376 62.6779 212.142 62.2387 211.885 61.7603C211.691 61.3948 211.484 61.0029 211.266 60.5927C211.113 60.3034 210.951 60.0037 210.789 59.6933C210.535 59.2174 210.269 58.7151 209.993 58.1971C209.834 57.8919 209.669 57.5816 209.502 57.266C204.635 48.0691 197.226 33.9349 196.463 32.0963C196.463 32.0963 195.969 30.914 196.686 31.4196C198.039 33.4569 199.247 35.5857 200.301 37.79C200.565 38.3411 201.879 40.8562 204.24 45.3354C206.242 49.1362 208.233 52.9456 210.206 56.7641C210.374 57.085 210.539 57.4061 210.705 57.7272C210.969 58.2377 211.233 58.7455 211.497 59.256C211.657 59.5693 211.816 59.8799 211.978 60.1903C212.179 60.5852 212.381 60.9774 212.582 61.3696C212.81 61.8117 213.039 62.2565 213.264 62.6988C213.354 62.8697 213.442 63.0409 213.529 63.212C213.865 63.8674 214.199 64.5256 214.536 65.1809C214.793 65.8675 215.318 66.2129 216.112 66.2226C216.123 66.222 216.136 66.2213 216.146 66.2127C216.157 66.2067 216.165 66.1982 216.172 66.1897C216.185 66.1674 216.186 66.143 216.174 66.122L215.055 63.9832C214.807 63.5692 214.606 63.2824 214.326 62.7889C214.243 62.6419 214.151 62.4738 214.049 62.2791C214.042 62.2632 214.034 62.2475 214.025 62.2317L213.415 60.9041L213.278 60.6059L212.842 59.707L212.827 59.6781C212.813 59.6518 212.641 59.3202 212.341 58.7359C212.133 58.3306 211.863 57.8042 211.544 57.1776C211.385 56.867 211.213 56.5327 211.03 56.1774C206.591 47.4797 195.431 25.5551 195.071 24.9171C195.041 24.8646 195.053 24.7964 195.1 24.7588L204.97 16.804L213.028 10.458L214.061 9.67937C214.175 9.65173 214.277 9.5977 214.365 9.5255C214.381 9.51117 214.388 9.49188 214.382 9.47599C214.378 9.45726 214.366 9.43896 214.35 9.43172L214.352 9.43158ZM182.93 6.30115C182.982 5.91186 183.34 5.63627 183.728 5.68884C184.119 5.74127 184.392 6.09729 184.342 6.48913C184.29 6.87842 183.932 7.154 183.544 7.10143C183.153 7.0517 182.88 6.69299 182.93 6.30115ZM183.455 58.9105C183.455 58.9105 183.445 58.9219 183.44 58.9248C183.412 58.956 183.375 58.9796 183.33 58.9928C183.311 58.9992 183.293 59.0055 183.274 59.0065C182.687 58.2129 182.379 57.3209 182.34 56.3282C182.311 56.1892 182.288 56.0552 182.276 55.9261C182.249 55.6302 182.267 55.3562 182.335 55.104C182.418 54.7888 182.585 54.6286 182.833 54.6291C182.879 54.6375 182.929 54.6538 182.978 54.6728C183.225 54.7464 183.402 54.8884 183.508 55.0991C183.544 55.1675 183.569 55.2419 183.59 55.3219C183.612 55.4315 183.696 55.9002 183.732 56.174C183.749 56.2974 183.763 56.4183 183.775 56.5393C183.831 57.0284 183.854 57.5191 183.853 58.0111C183.76 58.4025 183.627 58.7014 183.455 58.9105ZM186.004 7.21273C185.983 7.22194 185.962 7.23116 185.943 7.23754C185.909 7.25016 185.877 7.25994 185.842 7.26448C185.794 7.27511 185.746 7.27765 185.694 7.27495C185.678 7.27849 185.662 7.27664 185.646 7.27479C185.578 7.27024 185.504 7.25519 185.433 7.23191C185.395 7.22041 185.359 7.20607 185.32 7.18918C185.247 7.18221 185.176 7.16702 185.107 7.1409C185.055 7.12202 185.018 7.07534 185.009 7.02171C184.945 6.67907 184.975 6.36937 185.106 6.08948C185.149 5.99529 185.24 5.93104 185.345 5.92283C186.13 5.87078 186.465 6.137 186.345 6.72447C186.298 6.96749 186.183 7.13033 186.004 7.21273ZM208.017 58.3198C208.083 58.292 208.156 58.2855 208.227 58.3088C208.58 58.4119 208.888 58.5606 209.149 58.7631C209.377 58.9323 209.571 59.141 209.732 59.3893C209.892 59.6107 210.037 59.841 210.165 60.0802C210.323 60.3692 210.458 60.673 210.572 60.986C210.629 61.1506 210.681 61.3208 210.728 61.4914C210.883 62.0319 210.693 62.3717 210.158 62.5079C209.99 62.5897 209.819 62.5636 209.65 62.4292C209.425 62.2491 209.218 62.06 209.029 61.8617C208.807 61.6355 208.611 61.3945 208.436 61.1415C208.234 60.8493 208.061 60.5394 207.915 60.212C207.838 60.0349 207.78 59.8595 207.752 59.688C207.708 59.4686 207.705 59.2526 207.74 59.0426C207.633 58.9509 207.673 58.7515 207.862 58.4496C207.872 58.4356 207.882 58.4215 207.898 58.4072C207.928 58.3678 207.97 58.3385 208.017 58.3225L208.017 58.3198ZM208.261 10.8762C208.237 11.0531 208.162 11.2084 208.052 11.3277C208.019 11.3619 207.986 11.3934 207.949 11.4223C207.781 11.5528 207.563 11.6183 207.338 11.5869C207.284 11.579 207.232 11.5682 207.179 11.5493C207.155 11.5425 207.13 11.5303 207.105 11.5208C207.042 11.4917 206.983 11.4542 206.93 11.4138L206.887 11.3755C206.853 11.3448 206.822 11.3086 206.793 11.2723C206.767 11.2385 206.743 11.2046 206.725 11.1677C206.686 11.0995 206.658 11.0253 206.644 10.953C206.64 10.937 206.637 10.9237 206.633 10.9076C206.629 10.8754 206.624 10.8432 206.623 10.8109C206.621 10.7812 206.62 10.7516 206.623 10.719C206.623 10.7136 206.623 10.7082 206.625 10.7053C206.625 10.6919 206.624 10.6757 206.628 10.6592C206.63 10.6456 206.632 10.6293 206.637 10.6155C206.641 10.5883 206.647 10.5609 206.657 10.5334C206.656 10.5253 206.659 10.5171 206.663 10.5087C206.67 10.4813 206.682 10.4564 206.694 10.4287C206.723 10.3596 206.765 10.2952 206.816 10.2385C206.829 10.2162 206.844 10.1992 206.862 10.1847C206.885 10.1592 206.914 10.1361 206.942 10.1129C206.947 10.1127 206.952 10.1043 206.958 10.104C206.981 10.0866 207.005 10.0718 207.028 10.0571C207.099 10.0128 207.178 9.98431 207.258 9.96659C207.274 9.96035 207.29 9.9595 207.306 9.95596C207.335 9.9544 207.365 9.94746 207.394 9.9459C207.448 9.94307 207.499 9.94039 207.551 9.95118C207.725 9.97448 207.88 10.0501 208.002 10.16C208.036 10.1933 208.067 10.2268 208.096 10.2631C208.226 10.432 208.292 10.6502 208.261 10.8762Z" fill="white"/>
<path d="M194.343 8.63452C194.339 8.66446 194.327 8.68943 194.312 8.71184L192.48 11.4143C192.054 12.0342 191.625 12.6515 191.191 13.2664C190.857 13.8949 190.431 14.4715 189.929 14.9765C189.891 15.0163 189.864 15.0664 189.848 15.1213C189.802 15.2805 189.71 15.4259 189.584 15.5353C189.537 15.5756 189.52 15.5657 189.525 15.506C189.591 14.9592 189.624 14.5628 189.625 14.3221C189.624 14.1438 189.675 13.9978 189.777 13.8843C189.897 13.3914 189.976 12.8926 190.014 12.3851C190.085 11.4191 190.229 10.4627 190.441 9.5189C190.609 8.24229 190.961 6.99916 191.491 5.82513C191.51 5.78356 191.551 5.75163 191.597 5.74383C191.645 5.73858 191.695 5.75489 191.726 5.79107L194.119 8.31658C194.23 8.3756 194.301 8.45561 194.336 8.55649C194.346 8.58302 194.347 8.60998 194.343 8.63452Z" fill="#DB0E26"/>
<path d="M157.034 28.3588C163.099 39.874 164.196 41.3094 159.138 53.8963C155.921 63.3592 158.766 62.0018 148.998 62.4675C148.411 62.4024 147.204 63.2454 146.997 62.4261C147.097 60.9796 147.442 59.5569 147.821 58.1618C149.736 47.8989 152.92 37.9466 157.034 28.3585V28.3588Z" fill="white"/>
<path d="M172.201 6.9644C172.35 6.43151 171.441 5.12658 172.396 5.21239C176.106 5.39531 174.762 9.70258 173.832 11.9576C171.986 16.6827 170.148 21.4222 168.383 26.1731C166.44 22.8342 164.877 19.1857 163.049 15.7471C162.875 13.3785 164.683 11.0406 165.721 8.95529C166.61 7.83194 168.913 3.69441 170.503 5.34931C171.64 8.35649 167.844 11.3615 167 14.1672C167.918 15.0175 172.777 8.25077 172.201 6.96467V6.9644Z" fill="white"/>
<path d="M121.27 23.5442C122.884 24.1478 125.53 24.3211 125.941 22.172C128.561 25.9717 130.288 31.4488 132.607 35.8008C133.104 36.9529 133.347 34.9518 133.553 34.5316C136.347 26.4292 138.149 17.9702 141.338 10.0505C143.727 4.76353 147.884 2.06947 153.7 2.40546C154.15 2.52005 154.837 2.19967 155.036 2.77076C155.69 4.32183 156.426 5.83739 157.139 7.36183C163.954 22.2444 171.938 36.8983 178.265 51.851C176.261 52.4819 173.601 54.7356 171.603 53.3386C169.617 50.8079 168.565 47.6535 167.141 44.7895C163.117 35.3776 158.208 26.3943 153.923 17.1062C153.757 16.5883 153.285 16.1351 153.147 16.9488C148.993 30.7314 144.778 44.4863 141.78 58.5831C141.331 59.7508 141.531 61.4203 140.684 62.3074C140.177 62.5692 139.404 63.1465 138.975 62.4809C137.075 58.8255 135.192 55.1606 133.304 51.4989C128.246 41.8337 123.601 31.9567 118.978 22.0819C118.849 21.9111 118.97 21.6415 119.215 21.7572C121.085 22.2597 123.131 21.7389 124.349 20.1927C125.164 18.8886 125.125 19.7564 125.542 20.6812C125.056 22.4507 123.073 23.496 121.269 23.5445L121.27 23.5442ZM127.377 35.5218C127.492 36.4377 128.443 38.6309 129.569 37.4721C130.275 36.2694 127.771 32.9994 127.377 35.5218ZM168.663 38.6215C168.547 39.772 170.563 42.2493 170.937 40.0604C171.059 38.8873 169.02 36.3678 168.663 38.6215ZM170.835 42.8136C170.878 43.9319 172.769 43.2596 172.131 42.3206C171.657 41.7266 170.726 42.0365 170.835 42.8136Z" fill="#D11224"/>
<path d="M127.376 35.5219C127.77 32.9992 130.275 36.27 129.569 37.4722C128.442 38.6305 127.492 36.4387 127.376 35.5219Z" fill="#303030"/>
<path d="M168.664 38.6209C169.02 36.3672 171.06 38.8867 170.937 40.0601C170.563 42.2489 168.548 39.7712 168.664 38.6209Z" fill="#303030"/>
<path d="M170.834 42.8135C170.726 42.0366 171.657 41.7262 172.13 42.3207C172.768 43.26 170.878 43.9317 170.834 42.8135Z" fill="#303030"/>
<path d="M111.383 23.8202C111.757 21.0694 109.557 20.9532 109.547 20.1279C114.481 17.9188 114.939 25.831 116.613 28.7752C119.85 37.8968 125.521 45.8711 129.06 54.8563C129.224 55.4756 130.169 56.6839 129.685 57.1216C128.503 57.7909 127.317 58.4553 126.136 59.127C123.789 60.1202 123.562 62.4008 121.859 59.1259C116.296 51.0844 113.086 41.9375 109.659 32.8606C108.619 30.7061 104.308 21.4401 108.267 20.8649C110.701 20.7883 109.689 28.1735 111.03 26.7373C111.309 25.8157 111.322 24.6912 111.383 23.8205V23.8202Z" fill="white"/>
<path d="M117.223 63.5891C111.489 59.4736 104.67 56.0186 99.661 51.2287C97.957 44.0469 95.166 37.1879 92.9973 30.144C92.4118 29.343 92.5484 30.886 92.5162 31.2429C92.4115 38.035 91.8652 44.8208 91.9473 51.6142C91.5985 52.8174 93.1886 59.8825 91.8102 59.3203C86.0792 58.3118 84.9943 51.7761 84.4381 46.9021C84.2384 31.8307 83.8791 16.1632 84.1273 1.34358C87.7545 1.24728 91.9926 0.458298 95.294 1.87164C94.3712 6.07022 93.6555 10.3135 93.2222 14.5917C93.311 15.2505 92.5111 16.4209 92.9817 16.8419C95.3598 14.8618 97.6584 12.7832 100.008 10.7683C102.315 8.99831 104.362 6.51865 106.818 5.11849C107.755 5.26295 108.683 5.44453 109.629 5.52819C113.186 6.23754 117.142 6.56842 120.471 7.73212C113.965 12.2037 107.449 16.9554 101.017 21.6277C104.41 33.2112 111.673 45.6187 116.332 57.4669C117.186 59.7149 118.305 61.8315 119.303 64.0139C119.274 64.7356 117.889 63.7231 117.832 63.2787C97.8631 17.7172 96.1624 19.2172 117.224 63.5883L117.223 63.5891ZM114.243 59.5581C113.999 58.1684 113.383 56.481 111.929 55.9938C109.904 56.2725 113.336 62.2331 114.243 59.5581ZM87.1888 55.338C88.1548 54.4697 87.6831 52.9363 87.6348 51.7904C85.9561 48.8666 85.984 54.6859 87.1888 55.338ZM114.409 8.63866C114.447 7.54032 112.736 7.57825 112.78 8.64969C112.778 9.684 114.435 9.70256 114.409 8.63866ZM91.5306 3.43077C91.4836 4.27006 92.9793 4.17887 92.9216 3.34927C92.9922 2.37548 91.3521 2.42121 91.5306 3.43077ZM90.1999 3.73259C91.1039 3.78021 91.1511 2.34831 90.25 2.33055C89.338 2.3007 89.2905 3.69897 90.1999 3.73259Z" fill="white"/>
<path d="M97.8814 50.3719C94.8014 50.5734 93.4753 49.0043 94.3262 45.9974C94.3594 36.6727 97.5481 47.4637 97.8814 50.3719Z" fill="#D11224"/>
<path d="M114.242 59.5582C113.336 62.2329 109.903 56.2729 111.929 55.9939C113.383 56.4813 113.998 58.1682 114.242 59.5582Z" fill="#303030"/>
<path d="M87.19 55.3386C85.9851 54.6854 85.9572 48.868 87.6362 51.7907C87.6845 52.9366 88.156 54.47 87.19 55.3386Z" fill="#303030"/>
<path d="M114.409 8.63872C114.435 9.70262 112.778 9.68406 112.78 8.64975C112.735 7.57858 114.447 7.54038 114.409 8.63872Z" fill="#303030"/>
<path d="M91.5304 3.43115C91.352 2.42158 92.9923 2.37585 92.9218 3.34964C92.9792 4.17925 91.4837 4.27044 91.5304 3.43115Z" fill="#303030"/>
<path d="M90.2 3.73223C89.2906 3.69861 89.3381 2.30006 90.2501 2.33019C91.1512 2.34795 91.104 3.77985 90.2 3.73223Z" fill="#303030"/>
<path d="M71.5915 31.3385C77.1816 32.6434 80.3362 37.8796 80.5951 43.3683C80.8423 47.4996 81.1627 52.813 77.8237 55.8086C71.9108 58.4219 70.9351 49.5368 70.4664 45.5496C69.7413 41.0393 69.7676 37.2676 64.1225 37.0416C62.5688 38.7024 65.8866 58.9357 62.8084 58.4999C62.0845 58.3348 62.2664 57.2397 61.9098 56.7404C61.3642 56.2548 60.666 56.2632 60.4951 57.0559C59.0882 59.5474 57.2152 56.8571 57.2946 54.9795C55.9811 42.1244 55.0067 29.2438 54.678 16.3301C54.817 15.0448 53.752 10.4411 54.6026 9.98026C63.4758 6.94349 72.5331 4.36967 80.8466 0C80.4929 8.74822 82.8524 28.4989 71.5918 31.3382L71.5915 31.3385ZM63.4235 23.3591C63.6298 23.8215 62.8321 26.8257 64.1518 26.1742C67.7473 25.6784 71.4793 23.2144 70.7803 19.1355C70.6587 15.3245 65.8412 15.7272 63.1814 16.3505C62.9571 16.407 62.9313 16.4476 62.9531 16.6932C63.1804 18.9789 63.3274 20.8106 63.4238 23.3591H63.4235ZM75.2248 54.5365C76.6323 54.533 76.5904 52.5041 75.2882 52.5356C74.0071 52.5208 73.889 54.5408 75.2248 54.5365ZM75.8742 5.86479C77.195 5.87797 77.2079 3.80342 75.867 3.83678C74.6412 3.84969 74.4864 5.78086 75.8742 5.86479Z" fill="white"/>
<path d="M82.4162 28.631C82.2705 29.6947 82.7135 31.1475 82.2348 32.0261C81.4273 32.12 74.7261 33.0397 76.4969 31.2705C81.0592 29.0364 80.6043 23.1711 82.2104 19.1156C82.374 22.1903 82.286 25.4842 82.4159 28.631H82.4162Z" fill="#D11224"/>
<path d="M75.2245 54.536C73.8887 54.54 74.0068 52.5201 75.2878 52.5351C76.5901 52.5039 76.632 54.5325 75.2245 54.536Z" fill="#303030"/>
<path d="M75.8751 5.86446C74.4873 5.78053 74.6421 3.84936 75.8679 3.83645C77.2088 3.80336 77.1959 5.87764 75.8751 5.86446Z" fill="#303030"/>
<path d="M52.9057 54.9958C53.0817 56.2306 51.4196 56.5752 51.0421 55.642C50.7759 54.7193 50.2982 52.9563 51.7792 52.9138C52.8619 52.8538 52.7903 54.3276 52.906 54.9958H52.9057Z" fill="#303030"/>
<path d="M46.6262 59.7276C44.1505 50.2218 44.066 40.2074 44.1773 30.4187C44.1242 22.9555 42.8608 15.2529 44.9413 7.95459C45.3323 6.4619 47.1639 3.45015 48.1759 6.24696C48.6103 8.09447 47.8351 9.93256 47.5729 11.7534C46.8709 16.167 49.0206 11.4231 49.3973 10.0098C49.871 8.5811 49.9466 6.96063 49.0724 5.66699C48.9825 5.46336 48.613 5.1228 48.972 5.02031C55.0164 4.81775 51.5065 18.3763 52.2173 22.403C52.4079 34.2423 54.3563 46.02 54.0909 57.8758C53.5789 58.859 51.7987 58.3584 50.8252 58.5876C49.2989 58.5071 48.0597 59.4661 46.6259 59.7273L46.6262 59.7276ZM52.9048 54.9958C52.7894 54.3282 52.8608 52.8535 51.7781 52.914C50.2968 52.9568 50.7753 54.7188 51.0412 55.6422C51.4187 56.5751 53.0806 56.2308 52.9048 54.9961V54.9958Z" fill="white"/>
<path d="M1.28491 59.9018C6.64986 47.93 12.8442 36.3904 18.6355 24.6288C19.081 23.9654 17.9772 24.2172 17.6021 24.2645C6.95732 26.7954 8.8728 24.8704 1.33093 18.3568C0.925397 17.9207 0.415165 17.5597 0 17.1628C3.15736 16.3123 6.72327 15.8907 9.98021 15.0043C19.3684 13.0702 28.276 9.5824 37.3239 6.53186C39.7226 9.49434 33.2574 22.1061 31.6702 25.9971C27.3666 34.1722 24.0663 42.9122 19.3732 50.8481C18.9845 51.2161 19.3723 51.4851 19.7841 51.4073C25.5883 50.9875 31.4066 51.2731 37.218 51.3129C37.9106 51.5159 39.3928 50.8551 39.6332 51.6353C39.6648 54.0833 40.3655 56.4305 40.7123 58.8354C40.8297 59.3791 41.0707 60.0393 40.2093 59.9087C27.2318 59.8656 14.2627 59.6246 1.28521 59.9012L1.28491 59.9018ZM28.6687 16.2538C30.0775 16.3512 30.6151 14.203 29.4358 13.7099C27.3813 12.6058 26.1596 16.2276 28.6687 16.2538ZM33.6982 11.8579C33.6398 10.5421 31.5483 10.6383 31.274 11.8274C30.8191 13.7708 33.8438 13.6517 33.6982 11.8579Z" fill="white"/>
<path d="M32.8747 49.0482C25.5471 49.6625 29.3841 46.627 30.9788 42.5055C34.3781 34.7216 36.6573 26.5118 39.0562 18.3786C39.6555 16.6313 39.385 19.8395 39.4091 20.377C39.1416 29.6661 38.1245 38.9336 38.3697 48.2354C38.3742 48.9652 38.4211 48.9333 37.6979 48.9302C36.0144 48.9233 34.3353 49.094 32.8744 49.0485L32.8747 49.0482Z" fill="#D11224"/>
<path d="M13.9738 26.8353C16.2545 26.3054 12.0842 31.4659 11.8838 32.5115C11.0989 33.6144 10.7488 35.7252 9.75176 36.3473C9.75898 33.4711 8.10885 30.8735 8.11968 28.007C8.126 27.779 8.20001 27.7189 8.39014 27.6846C10.3095 27.3818 11.9651 26.8685 13.9738 26.8353Z" fill="#D11224"/>
<path d="M28.6682 16.2544C26.1582 16.2278 27.3818 12.6058 29.4356 13.7105C30.6137 14.2039 30.0776 16.3521 28.6682 16.2544Z" fill="#303030"/>
<path d="M33.6976 11.858C33.8432 13.6518 30.8188 13.7709 31.2734 11.8275C31.5481 10.639 33.6392 10.5418 33.6976 11.858Z" fill="#303030"/>
<path d="M231.932 4.05846C235.391 4.89072 235.878 5.90155 238.565 6.08012C241.178 6.25378 242.907 5.44446 243.257 6.08012C243.678 6.84849 241.465 8.59655 241.72 8.87998C241.928 9.10934 243.355 7.89864 245.198 7.26461C247.162 6.588 250.349 6.30948 251.669 7.48087C253.916 9.47304 249.468 14.5075 247.787 23.8082C247.205 27.0291 247.822 25.9544 246.816 42.0015C246.505 46.9475 245.593 50.2864 242.91 52.6259C240.559 54.6754 237.279 55.2767 237.364 55.5453C237.455 55.8353 241.011 54.2839 242.206 55.5519C243.039 56.4366 242.528 58.1683 241.315 60.973C238.519 67.4361 241.606 72.3789 239.212 75.59C238.782 76.1666 237.914 77.0513 237.594 78.5438C237.393 79.4809 237.545 80.0134 237.109 80.6425C236.756 81.1503 236.176 81.496 234.69 81.8434C232.139 82.4381 230.263 82.0039 228.06 81.7467C227.101 81.6353 226.892 80.5769 226.416 79.7676C224.795 77.0055 224.679 74.2744 224.653 73.7239C224.4 68.4158 222.873 65.1458 222.136 59.4674C221.89 57.5637 221.811 55.8009 221.741 52.2638C221.61 45.5533 221.512 36.8081 225.042 34.5554C225.4 34.3261 226.536 33.692 226.444 33.0498C226.354 32.4224 225.155 32.2028 224.54 31.9456C221.854 30.8201 221.95 25.4465 221.417 21.3196C220.218 12.0206 215.895 9.78104 217.858 6.70268C219.718 3.7865 225.122 3.50799 226.395 3.4441C228.801 3.32122 230.92 3.81599 231.932 4.0601V4.05846Z" fill="white"/>
<path d="M232.641 3.75463C236.101 4.58688 236.588 5.59772 239.275 5.77629C241.888 5.94995 243.617 5.14063 243.966 5.77629C244.388 6.54465 242.175 8.29272 242.43 8.57615C242.638 8.80551 244.064 7.5948 245.908 6.96078C247.872 6.28416 251.059 6.00565 252.379 7.17704C254.626 9.16921 250.178 14.2037 248.496 23.5043C247.914 26.7252 248.532 25.6505 247.526 41.6977C247.215 46.6437 246.303 49.9826 243.62 52.3221C241.268 54.3716 237.988 54.9728 238.073 55.2415C238.165 55.5315 241.721 53.98 242.915 55.2481C243.749 56.1327 243.237 57.8644 242.025 60.6692C239.229 67.1323 242.316 72.0751 239.922 75.2861C239.492 75.8628 238.624 76.7475 238.304 78.24C238.103 79.1771 238.255 79.7095 237.818 80.3387C237.465 80.8465 236.885 81.1922 235.4 81.5395C232.849 82.1342 230.973 81.7001 228.77 81.4429C227.811 81.3315 227.602 80.2731 227.126 79.4638C225.505 76.7016 225.389 73.9706 225.363 73.4201C225.109 68.112 223.583 64.842 222.846 59.1636C222.599 57.2599 222.521 55.4971 222.451 51.96C222.32 45.2495 222.222 36.5043 225.752 34.2516C226.11 34.0222 227.245 33.3882 227.154 32.746C227.064 32.1185 225.864 31.899 225.25 31.6418C222.563 30.5163 222.66 25.1426 222.127 21.0158C220.928 11.7168 216.605 9.47721 218.568 6.39884C220.427 3.48267 225.832 3.20416 227.105 3.14026C229.51 3.01739 231.63 3.51216 232.641 3.75627V3.75463Z" fill="#D11224"/>
<path d="M230.901 77.9356C228.312 81.8345 225.347 70.82 228.711 71.2374C230.834 72.6391 231.101 75.6044 230.901 77.9356Z" fill="#303030"/>
<path d="M236.052 86.9938C235.633 86.979 235.317 86.9184 234.736 86.961C234.071 87.0102 233.598 87.1526 233.461 87.1887C232.058 87.5637 230.433 86.3452 228.625 86.1602C226.045 85.8949 223.493 87.7881 223.627 88.5578C223.744 89.2293 225.946 89.2833 225.939 89.7878C225.934 90.2201 224.319 90.2774 224.228 90.8719C224.174 91.2306 224.672 91.6744 226.801 92.7766C227.724 93.2548 228.638 93.7462 229.559 94.2293C232.572 95.8097 233.234 96.2896 233.224 96.8792C233.216 97.3705 232.745 97.8585 232.641 97.9617C232.105 98.4923 231.455 98.5234 231.452 98.7822C231.452 98.8772 231.539 98.9951 232.047 99.2195C232.816 99.5601 233.518 99.6928 234.316 99.7894C235.481 99.9303 235.649 99.8516 235.734 99.8009C236.207 99.5274 236.319 98.9345 236.452 98.2287C236.596 97.4671 236.782 96.4763 236.466 95.3643C236.385 95.0826 236.274 94.8025 236.41 94.5356C236.575 94.2096 236.986 94.1294 237.471 94.0115C238.383 93.7887 239.152 93.5283 239.353 93.4481C240.47 93.0075 241.516 91.2732 241.157 89.5077C241.01 88.7871 240.92 88.5775 240.8 88.5087C240.421 88.2909 239.872 88.6708 239.753 88.5021C239.635 88.3367 240.174 87.9813 240.117 87.5785C240.047 87.0773 239.09 86.7072 238.283 86.6548C237.356 86.5958 237.271 87.038 236.049 86.9938H236.052Z" fill="white"/>
<path d="M236.687 86.6403C236.267 86.6255 235.952 86.5649 235.371 86.6075C234.706 86.6566 234.232 86.7991 234.095 86.8351C232.692 87.2102 231.068 85.9917 229.26 85.8067C226.68 85.5413 224.127 87.4346 224.261 88.2043C224.379 88.8758 226.58 88.9298 226.574 89.4342C226.569 89.8666 224.954 89.9239 224.862 90.5184C224.808 90.8771 225.306 91.3209 227.436 92.4231C228.358 92.9013 229.273 93.3927 230.194 93.8758C233.207 95.4562 233.868 95.9361 233.858 96.5256C233.85 97.017 233.38 97.505 233.275 97.6082C232.74 98.1388 232.09 98.1699 232.087 98.4287C232.087 98.5237 232.173 98.6416 232.681 98.866C233.45 99.2066 234.152 99.3393 234.951 99.4359C236.115 99.5767 236.284 99.4981 236.368 99.4474C236.842 99.1739 236.953 98.581 237.087 97.8751C237.231 97.1136 237.417 96.1228 237.1 95.0107C237.02 94.729 236.909 94.449 237.045 94.182C237.209 93.8561 237.621 93.7759 238.106 93.658C239.017 93.4352 239.786 93.1748 239.987 93.0946C241.104 92.654 242.151 90.9197 241.792 89.1542C241.645 88.4336 241.555 88.2239 241.434 88.1552C241.055 87.9373 240.507 88.3173 240.387 88.1486C240.27 87.9832 240.809 87.6278 240.751 87.2249C240.681 86.7238 239.724 86.3537 238.918 86.3013C237.99 86.2423 237.905 86.6845 236.684 86.6403H236.687Z" fill="#D11224"/>
<path d="M226.446 17.7375C225.047 21.6513 224.679 11.2483 224.767 10.533C225.893 9.96282 226.178 15.3793 226.446 17.7375Z" fill="#303030"/>
<path d="M214.491 98.3687C214.491 98.3687 214.49 98.3723 214.488 98.3742C214.35 98.3666 214.209 98.3592 214.071 98.3516L214.067 98.3517C213.781 98.3352 213.496 98.3221 213.21 98.3074C211.316 98.2126 209.423 98.1396 207.528 98.0865C207.039 98.072 206.548 98.0594 206.057 98.0504L206.053 98.0505C206.012 98.0484 205.972 98.0481 205.933 98.0477C205.809 98.0451 205.684 98.0406 205.56 98.0398C205.543 98.0386 205.529 98.0391 205.512 98.0379C205.208 98.0166 204.905 98.0061 204.6 98.0047C204.344 98.0051 204.077 98.0131 203.821 98.0299C203.814 98.0301 203.807 98.0268 203.802 98.027C203.785 98.0276 203.767 98.0282 203.75 98.0289C203.493 98.0185 203.238 98.0098 202.981 97.9994C202.719 97.9909 202.457 97.9789 202.197 97.9686C202.173 97.9695 202.148 97.9668 202.124 97.9659C201.947 97.9579 201.771 97.9518 201.595 97.9438C201.347 97.9349 201.098 97.9241 200.85 97.9134C200.643 97.9047 201.057 97.9238 200.85 97.9134C199.439 97.8533 197.41 97.7635 196.002 97.6906C195.736 97.7132 195.469 97.7194 195.202 97.713C195.178 97.7139 195.155 97.7039 195.134 97.6883C195.116 97.6745 195.104 97.655 195.099 97.6316L195.026 97.1977L194.651 94.7457C194.629 94.4512 194.589 94.1592 194.533 93.8695C194.448 93.4306 194.436 92.9799 194.498 92.5391C194.509 91.8901 194.544 91.2384 194.603 90.593C194.626 90.3385 194.679 90.1499 194.762 90.0309C194.761 90.0273 194.761 90.0255 194.761 90.0237C194.954 88.7591 195.88 86.3858 195.881 86.3767C196.381 85.1262 203.703 72.6598 203.703 72.6598C203.723 72.6265 203.723 72.5866 203.707 72.551C203.688 72.5173 203.655 72.4949 203.617 72.4945L198.212 72.2417C198.143 72.2316 198.072 72.2197 198.083 72.1468C198.092 72.074 198.061 72.0135 198.08 71.9748C198.172 71.7721 198.244 71.5629 198.293 71.3436C198.338 71.1427 198.351 70.9211 198.335 70.679C198.282 69.978 198.126 69.2898 197.87 68.6416C197.783 68.4165 197.762 68.4227 197.81 68.6601C198.006 69.6167 197.981 70.549 197.734 71.4549C197.682 71.6507 197.618 71.8469 197.544 72.0399C197.541 72.0527 197.534 72.0657 197.529 72.0785C197.535 72.0783 197.542 72.0781 197.55 72.0777L197.548 72.2789L196.958 72.3262C196.94 72.3268 196.925 72.3183 196.915 72.3042C196.906 72.29 196.902 72.272 196.909 72.2555C197.062 71.8404 197.173 71.4213 197.243 71.002C197.295 70.7012 197.326 70.3992 197.337 70.0981C197.343 69.9239 197.34 69.7465 197.331 69.5711C197.323 69.3703 197.304 69.1681 197.274 68.9662C197.22 68.5841 197.135 68.2032 197.015 67.8199C196.992 67.7537 196.966 67.6876 196.94 67.6197C196.853 67.3983 196.938 67.3317 197.191 67.4256C197.303 67.4197 202.494 67.5881 204.978 67.7697C207.115 67.9243 214.22 68.4458 214.41 68.4732C214.482 68.5557 214.457 68.6979 214.337 68.8999C214.263 68.9515 214.203 69.0244 214.167 69.1091C213.648 69.7588 213.173 70.4431 212.743 71.1584C212.702 71.2287 212.618 71.3315 212.488 71.4668C212.393 71.5681 212.318 71.6869 212.268 71.8192C211.419 73.041 210.584 74.2731 209.765 75.5209C209.167 76.4309 208.568 77.3372 207.965 78.2437C206.59 80.322 205.276 82.447 204.027 84.6112C203.955 84.7317 203.883 84.8557 203.815 84.9778C203.7 85.1796 203.584 85.3795 203.469 85.5813C203.244 85.9737 203.017 86.3644 202.791 86.7569C202.091 87.9659 201.384 89.1679 200.671 90.3648C200.527 90.6038 200.385 90.8392 200.24 91.0783C200.24 91.0783 200.238 91.0819 200.239 91.0838L200.239 91.0874C200.036 91.4228 199.836 91.7582 199.632 92.0936C199.533 92.2604 199.432 92.429 199.33 92.594C199.311 92.6273 199.307 92.6691 199.326 92.7029C199.342 92.7385 199.376 92.7608 199.412 92.7631C199.465 92.7647 199.519 92.7682 199.572 92.7717C199.728 92.7804 199.883 92.7873 200.036 92.7962C200.143 92.8013 200.249 92.8082 200.356 92.8151C200.685 92.8337 201.013 92.8542 201.343 92.8782C201.565 92.8936 201.79 92.9088 202.012 92.9259C202.175 92.938 202.337 92.9483 202.499 92.9641C202.722 92.9812 202.946 92.9982 203.169 93.0154C203.39 93.0344 203.611 93.0534 203.832 93.0742C204.034 93.092 204.235 93.1082 204.435 93.1297C204.579 93.1426 204.722 93.1554 204.865 93.1718C205.007 93.1847 205.145 93.1995 205.287 93.2124L205.292 93.2122C205.995 93.284 206.703 93.3266 207.411 93.3439C207.467 93.3527 207.52 93.3634 207.574 93.3759L208.674 93.3678C209.381 93.396 210.087 93.4351 210.791 93.4869C211.185 93.514 211.578 93.5466 211.97 93.5828C212.171 93.6025 212.234 93.7415 212.158 94.0016L212.153 94.0398L212.147 94.127C212.15 94.1124 212.151 94.0997 212.153 94.0851C212.26 94.5595 212.408 95.0214 212.599 95.4655C212.601 95.4727 212.603 95.4781 212.606 95.4834C212.631 95.5404 212.657 95.5975 212.683 95.6545C212.75 95.8042 212.824 95.9536 212.903 96.1011C212.903 96.1047 212.905 96.1083 212.906 96.11C212.914 96.1224 212.921 96.1384 212.929 96.1509C213.002 96.2895 213.081 96.4261 213.166 96.5606C213.49 97.0777 213.894 97.5573 214.377 98.0033L214.381 98.0031C214.408 98.0293 214.434 98.0519 214.461 98.0763C214.505 98.1163 214.531 98.1606 214.534 98.2094C214.537 98.2528 214.524 98.3022 214.494 98.354L214.493 98.3541L214.491 98.3687Z" fill="white"/>
<path d="M197.759 97.8459C197.742 97.9791 197.663 98.0222 197.521 97.9773C197.662 97.4176 197.629 96.8765 197.422 96.3519C197.418 96.346 197.381 96.2148 197.307 95.9544C197.255 95.7695 197.136 95.6373 196.948 95.5559C197.125 95.4328 197.268 95.4817 197.379 95.7046C197.722 96.405 197.849 97.1194 197.759 97.8459Z" fill="#303030"/>
<path d="M197.42 96.3524C197.42 96.3524 197.379 96.2153 197.306 95.9549C197.254 95.77 197.134 95.6378 196.946 95.5564C196.932 95.571 196.917 95.5877 196.902 95.6043C196.86 95.6541 196.827 95.7115 196.805 95.7726C196.782 95.8337 196.769 95.9005 196.765 95.973C196.761 96.0173 196.763 96.0655 196.768 96.1135C196.822 96.686 196.95 97.2497 197.146 97.7888C197.217 97.985 197.342 98.0487 197.519 97.9778C197.661 97.4181 197.627 96.877 197.42 96.3524ZM197.44 97.8884C197.44 97.8884 197.432 97.8987 197.429 97.9029C197.4 97.92 197.377 97.9168 197.361 97.8893C197.337 97.848 197.313 97.8188 197.289 97.8016C197.238 97.7573 197.219 97.6977 197.234 97.6208C197.24 97.5824 197.252 97.582 197.264 97.6217C197.292 97.7111 197.348 97.7853 197.422 97.8348C197.434 97.8424 197.442 97.8561 197.443 97.8702C197.443 97.8762 197.443 97.8842 197.44 97.8884Z" fill="#303030"/>
<path d="M182.091 81.6758C181.814 77.728 182.662 71.818 181.693 67.2947C181.525 67.0036 181.199 66.4516 181.715 66.3605C185.8 66.2748 189.918 66.4649 193.999 66.7315C195.373 67.1638 194.001 69.9309 194.098 71.0638C193.393 73.2963 189.813 71.9343 188.105 72.3355C187.102 72.8716 187.912 75.381 187.606 76.4852C187.087 79.5988 190.686 78.3515 192.453 78.5646C193.507 78.295 192.238 83.017 192.337 83.8913C192.249 84.3074 192.026 84.5488 191.616 84.6089C185.607 84.3199 187.999 83.8258 187.655 91.7371C187.637 92.1583 187.8 92.4722 188.229 92.4488C194.67 91.8654 192.013 92.2018 192.84 97.6541C192.742 98.919 184.506 98.0391 182.975 98.3289C182.559 98.3206 182.54 98.2996 182.476 97.8783C181.942 92.144 182.182 87.9019 182.091 81.676L182.091 81.6758ZM193.511 70.8058C193.52 70.297 192.777 70.2895 192.762 70.7897C192.724 71.311 193.53 71.334 193.511 70.8058Z" fill="white"/>
<path d="M179.995 69.1181C179.959 68.5682 180.121 67.0875 180.782 67.7608C181.049 68.7423 180.723 69.8319 180.735 70.8473C180.448 71.9623 179.902 69.3899 179.995 69.1179L179.995 69.1181Z" fill="#D11224"/>
<path d="M188.502 88.4284C188.651 87.624 188.372 85.8694 189.586 86.0046C190.362 86.4073 189.006 87.5981 188.99 88.2574C188.871 88.7601 188.458 89.4127 188.502 88.4284Z" fill="#D11224"/>
<path d="M193.517 70.7946C193.537 71.3168 192.719 71.294 192.757 70.7785C192.772 70.284 193.527 70.2916 193.517 70.7946Z" fill="#303030"/>
<path d="M162.842 99.9997C163.257 89.0196 162.708 77.6111 162.872 66.8196C166.918 66.8525 171.121 66.4392 175.07 67.5112C180.69 69.2954 178.726 77.1515 174.387 79.3283C173.898 79.5209 174.241 79.7771 174.584 79.8271C178.384 80.2485 181.515 84.3293 180.132 88.2941C178.935 91.3456 175.838 92.7115 173.205 94.0948C169.596 95.7353 166.214 97.9714 162.842 99.9999L162.842 99.9997ZM167.139 75.8592C167.147 77.8314 166.37 79.4636 168.956 77.9375C173.935 75.7056 172.931 71.4896 167.45 72.0523C166.62 71.8987 167.348 75.1398 167.139 75.8592ZM168.278 90.7456C170.696 89.561 173.243 87.1007 172.684 84.04C171.594 82.593 169.344 83.7721 167.851 83.8134C167.438 84.2179 167.879 85.5852 167.787 86.2368C167.89 87.7321 167.79 89.3284 168.278 90.7456L168.278 90.7456ZM165.626 71.4524C165.6 71.069 165.511 70.6178 165.176 70.4014C163.519 70.0948 165.196 73.9924 165.626 71.4524ZM165.731 75.9996C165.562 75.0289 165.667 74.0063 165.23 73.1355C164.805 72.7652 165.284 75.0725 165.21 75.3989C165.189 75.8219 165.468 76.9572 165.731 75.9996L165.731 75.9996ZM165.343 94.8024C165.385 94.1908 165.072 92.2903 164.683 93.71C164.494 94.4799 165.077 96.8918 165.343 94.8024ZM175.876 90.3724C175.018 90.4238 175.143 91.705 175.902 91.6759C176.67 91.6588 176.662 90.3863 175.876 90.3724Z" fill="white"/>
<path d="M165.626 71.4516C165.196 73.9919 163.52 70.0934 165.177 70.4006C165.511 70.617 165.601 71.0682 165.626 71.4516Z" fill="#303030"/>
<path d="M165.732 75.9992C165.189 77.5954 165.043 73.3536 165.077 73.0619C165.788 73.6648 165.498 75.0731 165.732 75.9992Z" fill="#303030"/>
<path d="M165.343 94.8036C165.077 96.8935 164.494 94.4801 164.684 93.7112C165.072 92.2917 165.385 94.1918 165.343 94.8036Z" fill="#303030"/>
<path d="M175.877 90.3729C176.663 90.387 176.671 91.6593 175.903 91.6763C175.144 91.7055 175.019 90.4243 175.877 90.3729Z" fill="#303030"/>
<path d="M171.435 86.1503C171.234 87.5306 169.99 88.6862 168.778 89.1086C168.02 88.7814 171.311 84.0095 171.435 86.1503Z" fill="#D11224"/>
</svg>
